<svg id="Capa_1" enable-background="new 0 0 512 512" height="512" viewBox="0 0 512 512" width="512" xmlns="http://www.w3.org/2000/svg"><g><path d="m241 0h30v76h-30z" fill="#ffbe40"/><path d="m256 0h15v76h-15z" fill="#ff9f40"/><path d="m241 136h30v301h-30z" fill="#ffbe40"/><path d="m256 136h15v301h-15z" fill="#ff9f40"/><g><path d="m447.166 59.096-164.037 27.173 4.922 29.589 126.83-20.962-52.881 161.104 14.526 15 16.289-15 44.185-132.568 44.185 132.568 16.131 15 14.684-15z" fill="#ff9f40"/></g><path d="m228.871 125.731-4.922-29.589-160.316 26.543-63.633 193.315 16.499 15 14.316-15 44.185-132.568 44.185 132.568 17.418 15 13.397-15-55.225-168.091z" fill="#ffbe40"/><path d="m256 61c-24.901 0-45 20.099-45 45 0 24.899 20.099 45 45 45s45-20.101 45-45c0-24.901-20.099-45-45-45z" fill="#ffdf40"/><path d="m119.185 316h-88.37-30.815c0 41.353 33.633 75 75 75s75-33.647 75-75z" fill="#ffdf40"/><path d="m481.185 256h-88.37-30.815c0 41.353 33.633 75 75 75s75-33.647 75-75z" fill="#ffbe40"/><path d="m256 151v-90c24.901 0 45 20.099 45 45 0 24.899-20.099 45-45 45z" fill="#ffbe40"/><path d="m361 437v-15h-210v15c0 24.899-20.099 45-45 45l30 15h240l30-15c-24.901 0-45-20.101-45-45z" fill="#ffdf40"/><path d="m406 482-30 15h-120v-75h105v15c0 24.899 20.099 45 45 45z" fill="#ffbe40"/><path d="m91 482h330v30h-330z" fill="#ffbe40"/><path d="m256 482h165v30h-165z" fill="#ff9f40"/></g></svg>