<svg id="Capa_1" enable-background="new 0 0 512 512" height="512" viewBox="0 0 512 512" width="512" xmlns="http://www.w3.org/2000/svg"><g><path d="m338.5 113.104c-24.745-14.28-53.101-26.4-82.5-35.023-85.596-25.107-180.125-20.175-220.811 50.419-54.644 94.57 41.058 214.243 138.311 270.396 24.754 14.29 53.108 26.422 82.5 35.057 85.583 25.146 180.062 20.253 220.811-50.453 54.644-94.572-41.058-214.243-138.311-270.396zm112.354 255.396c-34.095 59.09-120.455 57.634-194.854 33.873-24.575-7.85-47.853-18.122-67.5-29.464-79.286-45.765-172.657-150.892-127.354-229.409 33.978-58.885 119.913-58.004 194.854-33.959 24.382 7.824 47.617 18.073 67.5 29.55 79.286 45.765 172.657 150.892 127.354 229.409z" fill="#80aaff"/><path d="m476.811 383.5c54.644-94.572-41.058-214.243-138.311-270.396-24.745-14.28-53.101-26.4-82.5-35.023v31.459c24.382 7.824 47.617 18.073 67.5 29.55 79.286 45.765 172.657 150.892 127.354 229.409-34.095 59.091-120.455 57.635-194.854 33.874v31.58c85.583 25.146 180.062 20.253 220.811-50.453z" fill="#6680ff"/><path d="m476.811 128.5c-40.69-70.602-135.235-75.516-220.811-50.42-29.407 8.624-57.766 20.744-82.5 35.024-96.528 55.734-193.184 175.428-138.311 270.396 40.774 70.748 135.348 75.5 220.811 50.418 29.436-8.639 57.801-20.764 82.5-35.023 96.528-55.733 193.184-175.429 138.311-270.395zm-153.311 244.409c-19.671 11.349-42.944 21.614-67.5 29.458-74.453 23.782-160.774 25.197-194.854-33.867-45.358-78.613 48.267-183.759 127.354-229.409 19.741-11.396 43-21.667 67.5-29.515 74.59-23.892 160.761-25.162 194.854 33.924 45.358 78.611-48.267 183.757-127.354 229.409z" fill="#e1e6f0"/><path d="m476.811 128.5c-40.69-70.602-135.235-75.516-220.811-50.42v31.496c74.59-23.892 160.761-25.162 194.854 33.924 45.359 78.611-48.267 183.757-127.354 229.409-19.671 11.349-42.944 21.614-67.5 29.458v31.551c29.436-8.639 57.801-20.764 82.5-35.023 96.528-55.733 193.184-175.429 138.311-270.395z" fill="#cfd7e6"/><path d="m256 0c-90.967 0-165 115.39-165 256s74.033 256 165 256 165-115.39 165-256-74.033-256-165-256zm0 482c-74.443 0-135-101.928-135-226s60.557-226 135-226 135 101.928 135 226-60.557 226-135 226z" fill="#9ef"/><path d="m421 256c0-140.61-74.033-256-165-256v30c74.443 0 135 101.928 135 226s-60.557 226-135 226v30c90.967 0 165-115.39 165-256z" fill="#6cf"/><g><path d="m331 256v75c0 16.5-33.6 30-75 30s-75-13.5-75-30v-75z" fill="#e1e6f0"/><path d="m256 256h75v75c0 16.5-33.6 30-75 30z" fill="#cfd7e6"/><path d="m331 181v75c0 16.5-33.6 30-75 30s-75-13.5-75-30v-75z" fill="#cfd7e6"/><path d="m331 181v75c0 16.5-33.6 30-75 30v-105z" fill="#a3b1cc"/><ellipse cx="256" cy="181" fill="#f3f5f9" rx="75" ry="30"/><path d="m256 211v-60c41.4 0 75 13.5 75 30s-33.6 30-75 30z" fill="#e1e6f0"/></g></g></svg>