<svg id="Capa_1" enable-background="new 0 0 512.134 512.134" height="512" viewBox="0 0 512.134 512.134" width="512" xmlns="http://www.w3.org/2000/svg"><g><path d="m467.03 216.74v250.291h-210.964l-20.016-371.936h98.892z" fill="#e50058"/><path d="m45.103 216.74v250.291h210.963v-371.936h-78.876z" fill="#ff415b"/><path d="m345.922 65.095 121.108 112.366v39.279l-132.088-111.637h-78.876l-20.016-40.008z" fill="#ff415b"/><path d="m166.211 65.095-121.108 112.366v39.279l132.087-111.637h78.876v-40.008z" fill="#ff7c48"/><path d="m492.769 199.213 19.365-22.913-155.233-131.197h-100.835l-10.008 14.964 10.008 15.036h89.857z" fill="#ebebf0"/><path d="m155.23 45.103-155.23 131.197 19.365 22.913 146.846-124.11h89.855v-30z" fill="#fff5f5"/><path d="m241.066 334.019h30v30.024h-30z" fill="#fff5f5"/><path d="m328.939 252.532c20.445 15.467 35.72 37.432 43.009 61.848l28.746-8.582c-9.102-30.487-28.157-57.901-53.656-77.191-26.368-19.948-57.826-30.492-90.972-30.492l-10.008 13.976 10.008 16.024c26.559 0 51.757 8.443 72.873 24.417z" fill="#ebebf0"/><path d="m315.664 336.387 29.35-6.217c-8.845-41.752-46.252-72.056-88.947-72.056l-10.008 15.476 10.008 14.524c28.608.001 53.672 20.303 59.597 48.273z" fill="#ebebf0"/><g fill="#fff5f5"><path d="m111.438 305.799 28.746 8.581c7.289-24.416 22.563-46.381 43.009-61.848 21.115-15.974 46.314-24.417 72.873-24.417v-30c-33.146 0-64.604 10.544-90.973 30.492-25.498 19.29-44.554 46.704-53.655 77.192z"/><path d="m167.12 330.169 29.348 6.218c5.927-27.971 30.991-48.272 59.599-48.272v-30c-42.694 0-80.102 30.303-88.947 72.054z"/></g></g></svg>