<svg id="Layer_1" data-name="Layer 1" xmlns="http://www.w3.org/2000/svg" xmlns:xlink="http://www.w3.org/1999/xlink" viewBox="0 0 468.99 397.23"><defs><style>.cls-1{mask:url(#mask);filter:url(#luminosity-noclip-3);}.cls-2{mix-blend-mode:multiply;fill:url(#linear-gradient);}.cls-3{fill:url(#linear-gradient-2);}.cls-4{fill:url(#linear-gradient-3);}.cls-5{fill:#e4f1f7;opacity:0.6;}.cls-6{fill:#385e72;}.cls-7{mask:url(#mask-2);}.cls-8{opacity:0.5;}.cls-40,.cls-79,.cls-9{fill:#fff;}.cls-10{opacity:0.3;}.cls-11{opacity:0.7;}.cls-12{opacity:0.6;}.cls-13{mask:url(#mask-3);}.cls-14{fill:#b7bec0;}.cls-15{fill:#969c9e;}.cls-16{fill:#cdd5d7;}.cls-17{fill:#975a7b;}.cls-18{fill:#7ec8ef;}.cls-19{fill:#e5e8ec;}.cls-20{fill:#484f59;}.cls-21{fill:#2648a1;}.cls-22{fill:url(#linear-gradient-4);}.cls-23{fill:url(#linear-gradient-5);}.cls-24{fill:url(#linear-gradient-6);}.cls-25{fill:url(#linear-gradient-7);}.cls-26{fill:#83b4b3;}.cls-27{fill:#6bbc61;}.cls-27,.cls-34,.cls-35,.cls-41,.cls-58,.cls-60,.cls-83{fill-rule:evenodd;}.cls-28{fill:url(#linear-gradient-8);}.cls-29{fill:#3673d1;}.cls-30{fill:url(#linear-gradient-9);}.cls-31{fill:#77308f;}.cls-32{fill:url(#linear-gradient-10);}.cls-33{fill:url(#linear-gradient-11);}.cls-34,.cls-56{fill:#ffcc7e;}.cls-35,.cls-43{fill:#ff5656;}.cls-36{fill:url(#linear-gradient-12);}.cls-37{fill:#3c9bfa;}.cls-38,.cls-46{fill:#194079;}.cls-39{fill:#e0508d;}.cls-40{opacity:0.8;}.cls-41,.cls-42{fill:#ff447c;}.cls-44{fill:#ffe143;}.cls-45{fill:#7aff80;}.cls-46{opacity:0.3;isolation:isolate;}.cls-47{fill:url(#linear-gradient-13);}.cls-48{fill:url(#linear-gradient-14);}.cls-49{fill:url(#linear-gradient-15);}.cls-50{fill:url(#linear-gradient-16);}.cls-51{fill:#b7a35e;}.cls-52{fill:#f0ab00;}.cls-53{fill:#fd8167;}.cls-54{fill:#008fd3;}.cls-55{fill:#7a9c93;}.cls-57{fill:url(#linear-gradient-17);}.cls-58{fill:#d74848;}.cls-59{fill:#151c58;}.cls-60{fill:#7c4030;}.cls-61{fill:url(#linear-gradient-18);}.cls-62{fill:url(#linear-gradient-19);}.cls-63{fill:url(#linear-gradient-20);}.cls-64{fill:url(#linear-gradient-21);}.cls-65{fill:url(#linear-gradient-22);}.cls-66{fill:url(#linear-gradient-23);}.cls-67{fill:#1d164d;}.cls-68{fill:url(#linear-gradient-24);}.cls-69{fill:url(#linear-gradient-25);}.cls-70{fill:url(#linear-gradient-26);}.cls-71{fill:url(#linear-gradient-27);}.cls-72{mask:url(#mask-4);}.cls-73{fill:url(#linear-gradient-28);}.cls-74{fill:url(#linear-gradient-29);}.cls-75{fill:url(#linear-gradient-30);}.cls-76{fill:url(#linear-gradient-31);}.cls-77{fill:url(#linear-gradient-32);}.cls-78{fill:url(#linear-gradient-33);}.cls-79{opacity:0.15;}.cls-80{fill:url(#linear-gradient-34);}.cls-81{fill:url(#linear-gradient-35);}.cls-82{fill:#f4ac94;}.cls-83{fill:#ff4fa3;}.cls-84{fill:#c9eafd;}.cls-85{fill:url(#linear-gradient-36);}.cls-86{fill:url(#linear-gradient-37);}.cls-87{fill:url(#linear-gradient-38);}.cls-88{fill:url(#linear-gradient-39);}.cls-89{mask:url(#mask-5);}.cls-90{fill:url(#linear-gradient-40);}.cls-91{fill:url(#linear-gradient-41);}.cls-92{fill:url(#linear-gradient-42);}.cls-93{filter:url(#luminosity-noclip-2);}.cls-94{filter:url(#luminosity-noclip);}</style><filter id="luminosity-noclip" x="234.9" y="-15212.75" width="179.14" height="32766" filterUnits="userSpaceOnUse" color-interpolation-filters="sRGB"><feFlood flood-color="#fff" result="bg"/><feBlend in="SourceGraphic" in2="bg"/></filter><mask id="mask" x="234.9" y="-15212.75" width="179.14" height="32766" maskUnits="userSpaceOnUse"><g class="cls-94"/></mask><linearGradient id="linear-gradient" x1="324.47" y1="111.23" x2="324.47" y2="225.16" gradientUnits="userSpaceOnUse"><stop offset="0" stop-color="#fff"/><stop offset="1"/></linearGradient><linearGradient id="linear-gradient-2" x1="89.21" y1="13943.46" x2="93.47" y2="13748.1" gradientTransform="matrix(1, 0, 0, -1, 0, 14043.5)" gradientUnits="userSpaceOnUse"><stop offset="0" stop-color="#a8c0ff"/><stop offset="1" stop-color="#3f2b96"/></linearGradient><linearGradient id="linear-gradient-3" x1="334.97" y1="13878.42" x2="253.73" y2="13775.19" gradientTransform="matrix(1, 0, 0, -1, 0, 14043.5)" gradientUnits="userSpaceOnUse"><stop offset="0" stop-color="#ff59af"/><stop offset="1" stop-color="#dd1d80"/></linearGradient><filter id="luminosity-noclip-2" x="68.79" y="-15212.75" width="347.18" height="32766" filterUnits="userSpaceOnUse" color-interpolation-filters="sRGB"><feFlood flood-color="#fff" result="bg"/><feBlend in="SourceGraphic" in2="bg"/></filter><mask id="mask-2" x="68.79" y="-15212.75" width="347.18" height="32766" maskUnits="userSpaceOnUse"><g class="cls-93"/></mask><filter id="luminosity-noclip-3" x="234.9" y="38.51" width="179.14" height="197.53" filterUnits="userSpaceOnUse" color-interpolation-filters="sRGB"><feFlood flood-color="#fff" result="bg"/><feBlend in="SourceGraphic" in2="bg"/></filter><mask id="mask-3" x="234.9" y="38.51" width="179.14" height="197.53" maskUnits="userSpaceOnUse"><g class="cls-1"><rect class="cls-2" x="234.9" y="38.51" width="179.14" height="197.53"/></g></mask><linearGradient id="linear-gradient-4" x1="343.1" y1="390.28" x2="343.1" y2="322.45" gradientUnits="userSpaceOnUse"><stop offset="0" stop-color="#2648a1"/><stop offset="1" stop-color="#18a4e1"/></linearGradient><linearGradient id="linear-gradient-5" x1="386.91" y1="390.28" x2="386.91" y2="322.45" xlink:href="#linear-gradient-4"/><linearGradient id="linear-gradient-6" x1="382.42" y1="325.99" x2="382.42" y2="290.2" xlink:href="#linear-gradient-4"/><linearGradient id="linear-gradient-7" x1="335.11" y1="13703.79" x2="359.31" y2="13659.44" gradientTransform="matrix(1, 0, 0, -1, 0, 14043.5)" gradientUnits="userSpaceOnUse"><stop offset="0" stop-color="#cce7ff"/><stop offset="1" stop-color="#a7c8df"/></linearGradient><linearGradient id="linear-gradient-8" x1="161.76" y1="13729.18" x2="191.2" y2="13699.81" gradientTransform="matrix(1, 0, 0, -1, 0, 14043.5)" gradientUnits="userSpaceOnUse"><stop offset="0" stop-color="#acf3ef"/><stop offset="1" stop-color="#407cf1"/></linearGradient><linearGradient id="linear-gradient-9" x1="145.08" y1="13771.17" x2="183.32" y2="13682.63" gradientTransform="matrix(1, 0, 0, -1, 0, 14043.5)" gradientUnits="userSpaceOnUse"><stop offset="0" stop-color="#d55534"/><stop offset="1" stop-color="#fdb498"/></linearGradient><linearGradient id="linear-gradient-10" x1="137.88" y1="13710.79" x2="170.91" y2="13701.18" xlink:href="#linear-gradient-8"/><linearGradient id="linear-gradient-11" x1="148.57" y1="13707.16" x2="182.18" y2="13662.47" xlink:href="#linear-gradient-7"/><linearGradient id="linear-gradient-12" x1="164.08" y1="205.8" x2="238.66" y2="205.8" gradientUnits="userSpaceOnUse"><stop offset="0.37" stop-color="#b5d5f2"/><stop offset="1" stop-color="#f8f9fd"/></linearGradient><linearGradient id="linear-gradient-13" x1="340.84" y1="256.2" x2="340.84" y2="228.23" gradientUnits="userSpaceOnUse"><stop offset="0" stop-color="#fff"/><stop offset="1" stop-color="#fff" stop-opacity="0"/></linearGradient><linearGradient id="linear-gradient-14" x1="364.97" y1="256.2" x2="364.97" y2="194.23" xlink:href="#linear-gradient-13"/><linearGradient id="linear-gradient-15" x1="413.22" y1="256.2" x2="413.22" y2="173.94" xlink:href="#linear-gradient-13"/><linearGradient id="linear-gradient-16" x1="389.1" y1="256.2" x2="389.1" y2="210.68" xlink:href="#linear-gradient-13"/><linearGradient id="linear-gradient-17" x1="65.56" y1="13934.95" x2="84.31" y2="13871.84" gradientTransform="matrix(1, 0, 0, -1, 0, 14043.5)" gradientUnits="userSpaceOnUse"><stop offset="0" stop-color="#ffd6c7"/><stop offset="1" stop-color="#ffc0ac"/></linearGradient><linearGradient id="linear-gradient-18" x1="57.58" y1="13950.73" x2="89.36" y2="13904.27" gradientTransform="matrix(1, 0, 0, -1, 0, 14043.5)" gradientUnits="userSpaceOnUse"><stop offset="0" stop-color="#4a4975"/><stop offset="1" stop-color="#1d164d"/></linearGradient><linearGradient id="linear-gradient-19" x1="51.41" y1="13680.5" x2="59.74" y2="13649.85" xlink:href="#linear-gradient-17"/><linearGradient id="linear-gradient-20" x1="46.26" y1="377.51" x2="74.96" y2="377.51" gradientUnits="userSpaceOnUse"><stop offset="0" stop-color="#1d164d"/><stop offset="1" stop-color="#4a4975"/></linearGradient><linearGradient id="linear-gradient-21" x1="103.42" y1="13681.55" x2="111.39" y2="13648.41" xlink:href="#linear-gradient-17"/><linearGradient id="linear-gradient-22" x1="98.82" y1="377.51" x2="127.52" y2="377.51" xlink:href="#linear-gradient-20"/><linearGradient id="linear-gradient-23" x1="104.59" y1="13808.8" x2="20.78" y2="13616.2" gradientTransform="matrix(1, 0, 0, -1, 0, 14043.5)" gradientUnits="userSpaceOnUse"><stop offset="0" stop-color="#1d164d"/><stop offset="0.71" stop-color="#494774"/><stop offset="1" stop-color="#4a4975"/></linearGradient><linearGradient id="linear-gradient-24" x1="66.55" y1="13904.45" x2="66.55" y2="13899.12" gradientTransform="matrix(1, 0, 0, -1, 0, 14043.5)" gradientUnits="userSpaceOnUse"><stop offset="0" stop-color="#fdfbfb"/><stop offset="1" stop-color="#ebedee"/></linearGradient><linearGradient id="linear-gradient-25" x1="147.43" y1="13927.6" x2="156.94" y2="13900.83" xlink:href="#linear-gradient-17"/><linearGradient id="linear-gradient-26" x1="89.21" y1="13943.64" x2="91.57" y2="13835.31" gradientTransform="matrix(1, 0, 0, -1, 0, 14043.5)" gradientUnits="userSpaceOnUse"><stop offset="0" stop-color="#008fd3"/><stop offset="1" stop-color="#9dc9fa"/></linearGradient><linearGradient id="linear-gradient-27" x1="39.37" y1="13824.8" x2="49.48" y2="13879.65" gradientTransform="matrix(1, 0, 0, -1, 0, 14043.5)" gradientUnits="userSpaceOnUse"><stop offset="0" stop-color="#008fd3"/><stop offset="1" stop-color="#173f5f"/></linearGradient><mask id="mask-4" x="30.15" y="127.49" width="120.77" height="93.66" maskUnits="userSpaceOnUse"><g id="mask1"><path class="cls-3" d="M36.58,157.45c3.07-12.29,14.26-14.26,19.47-13.71,11.42.27,35.48,1,40.3,1.64,6,.83,23,7.41,23.58,7.41s25.5-24.68,26.33-25.23,4.66,2.19,4.66,2.74-6.31,11.52-15.63,26-15.08,13.71-19.47,13.44c-3.51-.22-14.44-.83-19.47-1.1v52.37c-7.67-.18-26.21-.44-38.93,0-15.91.55-12.34-1.64-11-3.29,1.1-1.32.46-7.68,0-10.69a133.86,133.86,0,0,0-13.44-8C26.43,195.83,32.74,172.8,36.58,157.45Z"/></g></mask><linearGradient id="linear-gradient-28" x1="114.87" y1="13870.5" x2="69.44" y2="13853.15" xlink:href="#linear-gradient-27"/><linearGradient id="linear-gradient-29" x1="311.7" y1="13681.37" x2="320.25" y2="13653.99" xlink:href="#linear-gradient-17"/><linearGradient id="linear-gradient-30" x1="302.14" y1="13676.38" x2="305.72" y2="13643.11" xlink:href="#linear-gradient-9"/><linearGradient id="linear-gradient-31" x1="264.37" y1="13680.79" x2="271.65" y2="13654.16" xlink:href="#linear-gradient-17"/><linearGradient id="linear-gradient-32" x1="254.65" y1="13676.38" x2="258.23" y2="13643.11" xlink:href="#linear-gradient-9"/><linearGradient id="linear-gradient-33" x1="231.04" y1="13789.34" x2="354.73" y2="13710.17" xlink:href="#linear-gradient-18"/><linearGradient id="linear-gradient-34" x1="318.79" y1="13922.89" x2="294.76" y2="13791.02" gradientTransform="matrix(1, 0, 0, -1, 0, 14043.5)" gradientUnits="userSpaceOnUse"><stop offset="0" stop-color="#173f5f"/><stop offset="1" stop-color="#2648a1"/></linearGradient><linearGradient id="linear-gradient-35" x1="296.49" y1="13929.35" x2="313.65" y2="13870.69" xlink:href="#linear-gradient-17"/><linearGradient id="linear-gradient-36" x1="299.69" y1="13869.12" x2="216.69" y2="13792.28" gradientTransform="matrix(1, 0, 0, -1, 0, 14043.5)" gradientUnits="userSpaceOnUse"><stop offset="0" stop-color="#f0ab00"/><stop offset="1" stop-color="#ffd985"/></linearGradient><linearGradient id="linear-gradient-37" x1="255.26" y1="13939.31" x2="290.77" y2="13813.11" gradientTransform="matrix(1, 0, 0, -1, 0, 14043.5)" gradientUnits="userSpaceOnUse"><stop offset="0" stop-color="#f7fbff"/><stop offset="1" stop-color="#dbe2e6"/></linearGradient><linearGradient id="linear-gradient-38" x1="259.22" y1="13861.24" x2="265.13" y2="13839.2" xlink:href="#linear-gradient-17"/><linearGradient id="linear-gradient-39" x1="334.97" y1="13878.42" x2="253.73" y2="13775.19" xlink:href="#linear-gradient-36"/><mask id="mask-5" x="304.47" y="144.93" width="34.81" height="84.08" maskUnits="userSpaceOnUse"><g id="mask2"><path class="cls-4" d="M326.18,154.25c-1.75-4.39-12.61-8-17.82-9.32-2.85,2.85-3.75,39-3.84,56.76,0,12.88-.27,23.46,1.92,24.4,3.84,1.64,27.15.82,23.58-1.92-2.85-2.19-2.83-14.81-2.46-20.84h4.66c6.58-.27,7.95-5.76,6.58-9.87S328.38,159.73,326.18,154.25Z"/></g></mask><linearGradient id="linear-gradient-40" x1="303.86" y1="13850.38" x2="325.12" y2="13822.75" gradientTransform="matrix(1, 0, 0, -1, 0, 14043.5)" gradientUnits="userSpaceOnUse"><stop offset="0" stop-color="#dd1d80" stop-opacity="0"/><stop offset="1" stop-color="#e72287"/></linearGradient><linearGradient id="linear-gradient-41" x1="308.6" y1="13865.63" x2="327.84" y2="13846.98" xlink:href="#linear-gradient-40"/><linearGradient id="linear-gradient-42" x1="299.88" y1="13856.54" x2="303.95" y2="13825.49" xlink:href="#linear-gradient-17"/></defs><title>ADSE website header asset</title><path class="cls-5" d="M416,21H71.87a3.08,3.08,0,0,0-3.08,3.08V237.31H416Z"/><polyline class="cls-6" points="415.96 21.04 415.96 38.31 68.79 38.31"/><g class="cls-7"><path class="cls-6" d="M416,38.31H68.79v-14A3.22,3.22,0,0,1,72,21H416Z"/></g><g class="cls-8"><g class="cls-8"><path class="cls-9" d="M145.46,289.76H112.12a33.34,33.34,0,0,1,33.34-33.33h0Z"/></g><g class="cls-10"><path class="cls-9" d="M145.46,289.76V256.43a33.35,33.35,0,1,1-33.34,33.33h33.34Z"/></g><path class="cls-9" d="M145.46,289.76l19.59-27a32,32,0,0,0-19.59-6.35Z"/><g class="cls-11"><path class="cls-9" d="M317.61,289.76l-31.72,10.31a33.34,33.34,0,0,1,21.41-42,31.68,31.68,0,0,1,10.31-1.63Z"/></g><g class="cls-10"><path class="cls-9" d="M317.61,289.76V256.43a33.35,33.35,0,0,1,0,66.69,32.83,32.83,0,0,1-31.72-23.05Z"/></g><path class="cls-9" d="M317.61,289.76l27-19.59a32.32,32.32,0,0,0-27-13.74Z"/><g class="cls-12"><path class="cls-9" d="M231.53,292,211.29,264.1a33,33,0,0,1,20.24-6.57Z"/></g><g class="cls-10"><path class="cls-9" d="M231.53,292V257.53A34.44,34.44,0,1,1,197.1,292a33.38,33.38,0,0,1,14.19-27.86Z"/></g><path class="cls-9" d="M231.52,292l32.75,10.64a34.44,34.44,0,0,0-22.1-43.39,32.91,32.91,0,0,0-10.65-1.68Z"/></g><g class="cls-13"><rect class="cls-5" x="234.9" y="38.51" width="179.14" height="197.53"/></g><rect class="cls-14" x="247.1" y="60.08" width="76.55" height="1.32"/><rect class="cls-14" x="247.1" y="62.5" width="63.55" height="1.32"/><rect class="cls-15" x="247.1" y="54.78" width="30.18" height="2.15"/><rect class="cls-15" x="333.34" y="112.3" width="15.28" height="1.32"/><rect class="cls-14" x="333.34" y="114.72" width="5.74" height="1.32"/><rect class="cls-14" x="333.43" y="125.53" width="13.95" height="1.32"/><rect class="cls-14" x="333.43" y="127.95" width="14.46" height="1.32"/><rect class="cls-14" x="333.43" y="130.38" width="14.04" height="1.32"/><rect class="cls-14" x="333.43" y="132.8" width="10.06" height="1.32"/><rect class="cls-16" x="353.9" y="112.3" width="2.22" height="21.82"/><rect class="cls-16" x="357.16" y="112.3" width="2.22" height="21.82"/><rect class="cls-16" x="360.41" y="112.3" width="2.22" height="21.82"/><rect class="cls-16" x="363.67" y="112.3" width="2.22" height="21.82"/><rect class="cls-16" x="366.93" y="112.3" width="2.22" height="21.82"/><rect class="cls-16" x="370.18" y="112.3" width="2.22" height="21.82"/><rect class="cls-16" x="373.44" y="112.3" width="2.22" height="21.82"/><rect class="cls-16" x="376.7" y="112.3" width="2.22" height="21.82"/><rect class="cls-16" x="379.95" y="112.3" width="2.22" height="21.82"/><rect class="cls-16" x="383.21" y="112.3" width="2.22" height="21.82"/><rect class="cls-16" x="386.47" y="112.3" width="2.22" height="21.82"/><rect class="cls-16" x="389.72" y="112.3" width="2.22" height="21.82"/><rect class="cls-16" x="392.98" y="112.3" width="2.22" height="21.82"/><rect class="cls-16" x="396.23" y="112.3" width="2.22" height="21.82"/><rect class="cls-16" x="399.49" y="112.3" width="2.22" height="21.82"/><rect class="cls-16" x="402.74" y="112.3" width="2.22" height="21.82"/><rect class="cls-16" x="406" y="112.3" width="2.22" height="21.82"/><rect class="cls-16" x="409.26" y="112.3" width="2.22" height="21.82"/><rect class="cls-17" x="353.9" y="116.28" width="2.22" height="17.83"/><rect class="cls-17" x="357.16" y="118.92" width="2.22" height="15.2"/><rect class="cls-17" x="360.41" y="125.59" width="2.22" height="8.53"/><rect class="cls-17" x="363.67" y="121.97" width="2.22" height="12.14"/><rect class="cls-17" x="366.93" y="130.7" width="2.22" height="3.41"/><rect class="cls-17" x="370.18" y="125.58" width="2.22" height="8.54"/><rect class="cls-17" x="373.44" y="122.54" width="2.22" height="11.57"/><rect class="cls-17" x="376.7" y="125.2" width="2.22" height="8.92"/><rect class="cls-17" x="379.95" y="116.28" width="2.22" height="17.83"/><rect class="cls-17" x="383.21" y="118.56" width="2.22" height="15.56"/><rect class="cls-17" x="386.47" y="114.19" width="2.22" height="19.92"/><rect class="cls-17" x="389.72" y="121.41" width="2.22" height="12.71"/><rect class="cls-17" x="392.98" y="116.66" width="2.22" height="17.46"/><rect class="cls-17" x="396.23" y="119.89" width="2.22" height="14.23"/><rect class="cls-17" x="399.49" y="125.39" width="2.22" height="8.73"/><rect class="cls-17" x="402.74" y="132.79" width="2.22" height="1.33"/><rect class="cls-17" x="406" y="118.94" width="2.22" height="15.18"/><rect class="cls-17" x="409.26" y="115.9" width="2.22" height="18.21"/><rect class="cls-15" x="333.34" y="70.41" width="15.28" height="1.33"/><rect class="cls-14" x="333.34" y="72.83" width="5.74" height="1.32"/><rect class="cls-14" x="333.43" y="83.65" width="13.95" height="1.33"/><rect class="cls-14" x="333.43" y="86.07" width="14.46" height="1.32"/><rect class="cls-14" x="333.43" y="88.49" width="14.04" height="1.32"/><rect class="cls-14" x="333.43" y="90.91" width="10.06" height="1.32"/><rect class="cls-16" x="353.9" y="70.41" width="2.22" height="21.82"/><rect class="cls-16" x="357.16" y="70.41" width="2.22" height="21.82"/><rect class="cls-16" x="360.41" y="70.41" width="2.22" height="21.82"/><rect class="cls-16" x="363.67" y="70.41" width="2.22" height="21.82"/><rect class="cls-16" x="366.93" y="70.41" width="2.22" height="21.82"/><rect class="cls-16" x="370.18" y="70.41" width="2.22" height="21.82"/><rect class="cls-16" x="373.44" y="70.41" width="2.22" height="21.82"/><rect class="cls-16" x="376.7" y="70.41" width="2.22" height="21.82"/><rect class="cls-16" x="379.95" y="70.41" width="2.22" height="21.82"/><rect class="cls-16" x="383.21" y="70.41" width="2.22" height="21.82"/><rect class="cls-16" x="386.47" y="70.41" width="2.22" height="21.82"/><rect class="cls-16" x="389.72" y="70.41" width="2.22" height="21.82"/><rect class="cls-16" x="392.98" y="70.41" width="2.22" height="21.82"/><rect class="cls-16" x="396.23" y="70.41" width="2.22" height="21.82"/><rect class="cls-16" x="399.49" y="70.41" width="2.22" height="21.82"/><rect class="cls-16" x="402.74" y="70.41" width="2.22" height="21.82"/><rect class="cls-16" x="406" y="70.41" width="2.22" height="21.82"/><rect class="cls-16" x="409.26" y="70.41" width="2.22" height="21.82"/><rect class="cls-18" x="409.26" y="86.63" width="2.22" height="5.6"/><rect class="cls-18" x="406" y="81.64" width="2.22" height="10.59"/><rect class="cls-18" x="402.74" y="83.7" width="2.22" height="8.53"/><rect class="cls-18" x="399.49" y="80.09" width="2.22" height="12.14"/><rect class="cls-18" x="396.23" y="88.82" width="2.22" height="3.41"/><rect class="cls-18" x="392.98" y="83.7" width="2.22" height="8.54"/><rect class="cls-18" x="389.72" y="80.66" width="2.22" height="11.57"/><rect class="cls-18" x="386.47" y="87.57" width="2.22" height="4.66"/><rect class="cls-18" x="383.21" y="89.82" width="2.22" height="2.41"/><rect class="cls-18" x="379.95" y="84.65" width="2.22" height="7.58"/><rect class="cls-18" x="376.7" y="82.21" width="2.22" height="10.03"/><rect class="cls-18" x="373.44" y="79.52" width="2.22" height="12.71"/><rect class="cls-18" x="370.18" y="81.34" width="2.22" height="10.9"/><rect class="cls-18" x="366.93" y="78" width="2.22" height="14.23"/><rect class="cls-18" x="363.67" y="83.51" width="2.22" height="8.73"/><rect class="cls-18" x="360.41" y="84.93" width="2.22" height="7.3"/><rect class="cls-18" x="357.16" y="77.06" width="2.22" height="15.18"/><rect class="cls-18" x="353.9" y="74.02" width="2.22" height="18.21"/><path class="cls-18" d="M275.25,74.48c.19,0,.12-.29.39-.21s.55.45,1,.42c.33-.25-.45-.47-.19-.64.15.06.24.16.39.22.07-.37-.11-.45-.2-.64.79,0,.54-1.12.39-1.71a2.06,2.06,0,0,1,.86-.1c0-.47-.51-.42-.77-.64.3,0,.22-.32.58-.22.07-.32-.17-.31-.09-.63.33.06.23-.38.57-.32.23-.09.82.21.76-.22s-.41-.1-.48-.32c-.22,0-.17-.37-.48-.32s-.86.39-1,.22c.06-.54.85-.27,1-.75-.2-.3-.62-.37-1.15-.32-.31-.12-.69-.28-.86,0-.08-.15-.31-.15-.48-.21-.38.28-1.32,0-1.71.21-.44,0-1-.08-1.16.22,0,.23.26.68.1.74a15.55,15.55,0,0,1-1.72-.11c-1,.15-1.41.85-2.4,1-.09.39.44.09.39.43-.28.26-.8.25-1.06.53-.23-.14-.54-.11-.67.32.31-.09.3.17.48.21,0-.28.48-.28.48,0,.24-.06.65-.47.68.11-.41.05-1-.1-1.26.11.1.4.46.49.78.64s.17-.3.48-.22a1.29,1.29,0,0,0,1.14.32,1.29,1.29,0,0,0,.2,1,1.71,1.71,0,0,0-.1.75c.38.2.44-.49.67-.11.05.38-.29.33-.57.32.07.48.72.33.85.75a4.88,4.88,0,0,0-.67.53c.27.14-.3.22-.18.53.67.51.14,1.73.65,2.45h.68c.27,0,.17.45.48.43.09-.21.16-.46.39-.54-.12-.8.46-.81.37-1.6.25,0,.14-.41.39-.42.36.22.36-.25.76,0a3.9,3.9,0,0,1,.48-.42c.46-.13.67-.54,1.15-.64,0-.39.84-.48.57-.86C275.92,74.94,275.52,74.51,275.25,74.48Zm1-.43c-.26-.18,0-.7.28-.64C276.44,73.68,276.24,73.77,276.21,74.05Zm.67-5.11c0,.32-.22.4-.39.53a1.88,1.88,0,0,0-1.24-.21C275.57,68.82,276.47,69,276.88,68.94Z"/><path class="cls-18" d="M263.39,70.54v.64c.29-.08.35.11.57.11.05-.49.62-.94,1-.75.15.45-.5,0-.48.32.29.16-.33.19-.29.43.25-.07.34,0,.29.31-.22,0-.28-.18-.57-.1,0,.3-.33.21-.19.64.57-.08,1-.15,1.24.32-.76.17-1.25-.43-1.72-.22-.08.52.58.21.57.65.72-.12,1.69.47,1.92-.33.24,0,.41,0,.37-.32s-.45.08-.37-.21h.67c0-.57.58-.49.48-1.17.49,0,.54-.53,1.15-.43a.65.65,0,0,1,.66-.42c.12-.27-.21-.52,0-.54.4-.2,1,.11,1.15-.53,0-.17-.27,0-.28-.21-1.57.24-3.7-.31-5.37.42-.12.64.42.54.48,1-.62.06-.43-.79-1.14-.64,0,.15-.14.2-.1.43-.15,0-.33,0-.29.21S263.35,70.34,263.39,70.54Zm2,1.92c.05.05-.07.13-.1.1S265.37,72.42,265.4,72.46Z"/><path class="cls-18" d="M286.91,70.33c.06-.31.51-.16.39-.64a15.74,15.74,0,0,0-2.49-.22.72.72,0,0,0,.1.43A3.67,3.67,0,0,0,286.91,70.33Z"/><path class="cls-18" d="M283.19,70.86c0,.26-.17.33,0,.53.39,0,.41-.47.86-.43,0,.48-.47.48-.48,1a.67.67,0,0,0,.68.22c-.05.33.2.34.47.32.09-.4.17-.81.29-1.17.25.28.4.69,1.05.53.08-.81-.51-.86-.76-1.28,0,.25-.26-.12-.39-.11a.43.43,0,0,1-.47-.21c.22-.28-.08-.63-.48-.53s.15.55-.1.64c-.2-.51-1.11-1-1.15,0C282.76,70.63,283.13,70.58,283.19,70.86Z"/><path class="cls-18" d="M292.85,70.11c0-.67-.89-.44-.86.11C292.32,70.55,292.49,70.07,292.85,70.11Z"/><path class="cls-18" d="M298.21,70.75c.75-.14,1.54.37,1.72-.32a1.39,1.39,0,0,0-1.62-.32C298.09,70.13,298.27,70.56,298.21,70.75Z"/><path class="cls-18" d="M317.53,77.15c.23,0,.18-.38.48-.32.5,0,.43.65,1.05.53.12-.2-.08-.54.1-.85-.26-.13-.63-.7-.87-.22a.71.71,0,0,0-.09-.53c-.52-.21-.79-.68-1.62-.53-.11-.2-.38-.23-.48-.43-.62.09-.76-.37-1.44-.21-.13.3.26.54,0,.64-.28,0-.23-.46-.48-.54-.28.33-.79,0-1.34.22-.35-.25-.32-.93-1-.75-.14,0,0,.32-.19.32a8.62,8.62,0,0,1-1.16-.64c0,.1-.07.19-.18.21.11-.41-.24-.31-.48-.32.23-.25-.11-.24-.2-.42-.45.18-.43-.06-.86-.11,0,.14-.24.09-.39.11-.09.2.3.35,0,.42-.81-.14-1.85.19-2.57,0-.25-.06-.34-.39-.58-.32a1.56,1.56,0,0,1-1.05-.21c-.12,0-.26,0-.38,0s-.42-.34-1-.21c0-.28.29-.32.29-.64s-.44-.43-.57-.75a2.66,2.66,0,0,1-1.16.11c-.23-.09-.19-.48-.57-.42s-.3.36-.28.74c-.48-.17-.31.38-.68.32-.18,0-.07-.41-.38-.32a1.24,1.24,0,0,1-1.14.43c-.17.13-.25.36-.58.32-.13.13,0,.52-.29.53s-.66-.17-.57.21.56.16.48.64c-.35-.11-.45-.5-1-.43,0,.29.05.63-.2.64a1,1,0,0,1-.1-.64c-.37-.08-.15.47-.57.32-.15-.18-.13-.56-.57-.42a10.86,10.86,0,0,1-1,1.17c-.62,0-.57-.2-1.24-.21-.16.52.49.16.38.64a11.39,11.39,0,0,0-1.44,0c-.43.19-.66.6-1.15.74v-.64c-.23,0-.46,0-.57-.1,0,.59,0,1.13-.57,1.06,0,.4-.35.32-.57.43s.16.32-.11.43c-.55.12-.59-.78-.56-1a3.24,3.24,0,0,1,1.24.1c.25-.67-.54-1-1.15-1.06a.89.89,0,0,0-.77-.43,1.81,1.81,0,0,0-.47-.64h-.87c-.26.2-.5.44-.76.64,0-.16-.12,0-.29,0-.34.4-.77.7-1.14,1.07a2.4,2.4,0,0,1-.58,1.16c0-.12-.17-.08-.28-.1v.43c-.61,0-.68.67-.86,1.17a1.86,1.86,0,0,1,.18,1.17c.1.29.61.11.77.32-.2.31-.38.43-.38.75.21-.06.18.15.18.32a5.56,5.56,0,0,0-.85.21c-.09.19-.27.27-.19.64-.55-.19-.22.61-.67.53,0,.13,0,.19-.1.21-.43-.05-.51.29-.77.43s-.49.09-.47.42c.12.15.41.11.66.11,0,.49.45.36.39.86-.09.14-.09.39-.28.42-.45-.25-.85.1-1.45,0-.09.35.22,1.16-.18,1.18.07.3.28.45.18,1,.45-.1.59.14.87.21.36-.2.4-.2.77,0a2.26,2.26,0,0,0,.47-1.49c.42-.14.35-.82.87-.85.39.27.57-.08.95-.11a2.26,2.26,0,0,0,0,1.6c.61-.06.23-.6.29-1.17-.1,0-.12-.19,0-.21v.21c.2,0,.19.29.29.43a.79.79,0,0,1,.85.63c0,.23-.24.23-.48.22,0,.37.34.33.48.53,0-.47.27-.56.48-.75,0-.23-.18-.14-.19-.32.18-.33.33.36.48,0-.26-.56-1.45-.65-1.14-1.48.28.48.82.71,1.14,1.17a4.28,4.28,0,0,1,.19.43c.08.13.23.25.2.42v.63c.12.15.41.11.66.11.16-.36-.17-.89.1-1.28h.28c-.1.42,0,.4-.09.86.21,0,.13.3.29.42a1.18,1.18,0,0,0,1.24,0c.29.16-.25.56.19.54s0-.69.49-.54v.64c-.29.19-.1.9-.49,1a7.76,7.76,0,0,0-2.49-.42c-.27.08-.23.53-.48.64-.44-.51-1.31-.53-1.71-1.07.07-.37-.11-.45-.2-.64.23,0,.22-.28.1-.42a3.06,3.06,0,0,0-1.43.31,2.29,2.29,0,0,0-1.83.43.52.52,0,0,0-.57-.32c-.07.37-.42.45-.67.64-.25.5-.16,1.16-.38,1.59s-.65.58-.86.86a2.45,2.45,0,0,1-.49,1.39v2.76a3.82,3.82,0,0,1,.78,1.5c.44.28.73.74,1.34.85a4.33,4.33,0,0,1,1.34-.11c.19-.17.18-.57.57-.54.18,0,.06.37.19.43.45-.06.61.17,1,.22.16-.1.24-.3.57-.22a11.44,11.44,0,0,1-.2,1.93c.28.54.75,1,.58,1.69a4.71,4.71,0,0,1,.39,1.5c-.25.48-.18,1.28-.39,1.81a3.53,3.53,0,0,1,.87,1.7v1c.42.55.41,1.6.86,2.13.92-.07,1.38-.65,2.19-.85a2.14,2.14,0,0,1,.86-1.28c0-.41.18-.52.1-1,.17-.09.24-.29.58-.21a2.58,2.58,0,0,1,1.14-2.45,9.92,9.92,0,0,0,0-3,5.54,5.54,0,0,0,.48-1.39c.23-.17.42-.38.67-.53.46-.74.87-1.52,1.34-2.23.07-.4.2-1-.09-1.18-.42-.06-.39.35-.77.32h-.86c-.05-.73-.53-1-.86-1.38.08-.7-.57-.58-.38-1.39-.17-.24-.46-.34-.58-.64.09-.32-.13-.82,0-.85.23.18.49.74.38,1,.41.45.67,1,1.05,1.49.23.45.2,1.11.68,1.49a9.78,9.78,0,0,1,1.91-.85c.13-.07,0-.41.19-.43.41-.07.59-.41,1-.53-.07-.47.27-.47.29-.85-.17-.38-.66-.4-.58-1.07a.79.79,0,0,0-.76.21c-.09-.4-.44-.51-.39-1.06-.31,0-.28-.33-.48-.43.14,0,.24-.15.39-.21.53.37.36,1.5,1.33,1.38.05.21.28.2.2.54.46.05.53-.33,1-.32.09.07.09.24.28.21.67-.1.83.36,1.24.53-.15,0-.18.09-.19.22s.44.15.58.32c-.05.33.17.38.09.75a4.55,4.55,0,0,1,.58,1.38,1.68,1.68,0,0,1,.48.75v.64c.11.14.41.1.66.1a5.68,5.68,0,0,0,.38-2h.39v-.43c.36.15.18-.29.48-.21,0-.5.34-.54.47-.86a1.79,1.79,0,0,1,.86-.42c.22.29.23.82.59,1,0,.25-.18.23-.11.53s.76.08,1,.32c-.12.22.05.31-.09.64a.78.78,0,0,1,.47.64c0,.2-.26.19-.19.53s.3.38.19.85a10.23,10.23,0,0,0,1.44,1.28c0-.7-.45-.85-.48-1.49a2,2,0,0,1-.67-.74c0-.35-.12-.92.19-1,.21.3.36.66.77.74a.66.66,0,0,1,.09.42c.93-.13,1.16-1,1.06-2.34-.13-.11-.36-.1-.48-.21.12-.47-.46-.44-.19-.75s.24.35.67.22c.06-.46.54-.46,1.05-.43a4.88,4.88,0,0,0,.85-1.6c.16,0,.17-.1.3-.1.15-.43,0-1.23.28-1.49-.2-.1-.28-.32-.28-.64-.17-.14-.38-.23-.39-.54s.18-.23.09-.53c.21,0,.31,0,.3-.21.27-.14-.44-.64.19-.64.11.33.44.43.57.75a.67.67,0,0,0,.48.85c.58-.47,0-1.64.28-2.45a2.45,2.45,0,0,1,.78-.43,4.77,4.77,0,0,1,.76-1.39c.12-.85-.22-1.74,0-2.34-.14.61.22.68.28,1.07,0,.66.05,1.29.49,1.49.17-.19-.09-.27,0-.64.25,0,.18.18.38,0,0-.34-.26-.36-.2-.75-.34-.07-.43-.43-.57-.74s0-.89-.29-1,0,.47-.28.43c-.16-.79-.81.49-1-.32.06-.25.24-.37.37-.54.12-.34.08-.84.39-1,.22.27.18-.15.48-.1a4.44,4.44,0,0,0,1.43.21c0,.19.08.2.19.21.13-.14.42-.1.67-.1,0-.34-.17-.38-.09-.75.19,0,.18-.28.38-.32s.19.29.38.32c0-.23.29-.59.39-.32a6.52,6.52,0,0,0-.87,2.13c.07.29.28.41.38.64.05.41.12.8.39,1,.24-.27.37-.65.67-.85-.09-.53.31-.45.09-.85,0-.22.26-.21.29-.43-.14-.13-.43-.09-.38-.43.09-.93.72-.73,1.43-.63.14-.17.13-.5.29-.64.56,0,1-.34,1.34-.32C318,77.54,317.53,77.61,317.53,77.15Zm-32.14,1.17a1.25,1.25,0,0,0,.76.42v1.07c-.21,0,.05-.63-.37-.43-.22.37-.09,1.12-.39,1.39a6.53,6.53,0,0,0-.77,0c-.26.06-.32.31-.57.32,0-.13-.27-.37-.28-.11a.16.16,0,1,1,0-.32,1.68,1.68,0,0,1-.39-1.07c.48,0,.3,1.51,1.15,1.07.22-.43.36-1,.57-1.39a2.4,2.4,0,0,0-.19-.64c.06-1,.74-1.3,1-2,.12,0,.18,0,.19.11C286.08,77.45,285.3,77.4,285.39,78.32Zm1.05.74c0-.32.34-.26.58-.32C287,79.07,286.73,79.06,286.44,79.06Zm.77-4.15c0-.06.07-.14.09-.11S287.24,74.94,287.21,74.91Zm1.73,15.34c-.06-.06.06-.14.09-.11S289,90.28,288.94,90.25ZM289,77s.06-.13.09-.1S289.05,77.07,289,77Zm7.07-1.7c-.18,0-.4,0-.37-.32-.29,0,.09-.44,0,0C295.79,75.18,296.19,75,296.1,75.33ZM302,73.41s.07-.13.11-.1S302.06,73.44,302,73.41Zm.29-.1c-.05-.06.08-.14.1-.11S302.35,73.34,302.32,73.31Zm.29-.22c-.05,0,.07-.13.1-.1S302.64,73.12,302.61,73.09Zm4.3,13.43c.14-.2.21-.47.57-.42,0,.16,0,.4.1.42C307.44,86.84,307.17,86.43,306.91,86.52Z"/><path class="cls-18" d="M273,99.09c-.16-.2-.28,0-.47.1-.16-.36-.52-.48-.86-.64H271c-.18-.31-.81-.09-.86-.52-.26,0-.57.06-.57-.22.27-.5-.29-1.86-1.15-1.38a1.22,1.22,0,0,1-.58-1c-.5-.15-.85-.47-1.34-.63-.13,0-.15.19-.28.21-.13-.38-.6-.4-.68-.85-.3-.09-.2.27-.38.32s-.26-.35-.48-.43c-.09.19-.17.37-.48.32-.14.44-.52.62-.76,1,0-.35-.11-.51-.38-.53s-.36.38-.67.43c-.24-.52.09-1,0-1.71-.18-.37-.82-.23-1.15-.43.09-.46.37-.72.29-1.38a2.58,2.58,0,0,1-1,0c-.17.23-.09.75-.39.85-1.27.08-.47-1.83-.76-2.66.34-.09.54-.33.86-.43.52,0,.65.34,1.15.32,0-.15,0-.3.1-.32.46,0,1.07-.13,1.14.32,0,.62.21.91.67,1a2.12,2.12,0,0,1,0-1.07c-.11-.15-.27-.25-.28-.53a1.57,1.57,0,0,1,1.24-1.28.79.79,0,0,0,0-.64.52.52,0,0,0,.48-.11c-.24-.58.31-.45.19-1.17.32-.14.62-.29.95-.42.05-.33-.28-.24-.18-.64a4.75,4.75,0,0,1,1.34-.64c.07.29-.19.22-.19.43a3.14,3.14,0,0,0,1-.64c-.23-.17-.71-.07-.67-.54.06-.29.38-.29.58-.42,0-.26-.18-.23-.1-.53.47.35,1-.52,1.34-.32-.22.57-.67.88-.86,1.49.36.08.41-.18.77-.11,0,.17-.05.41.09.43.1-.27.37.15.67,0-.05-.24-.18-.55,0-.75-.35,0-.43-.36-.57-.64a10.59,10.59,0,0,0,0-1.38c-.18-.2-.24,0-.48,0,0-.51-.44-.51-.48-1a.67.67,0,0,0,.1-.43c-.37-.23-.23-1-.77-1.06-.05.15.11.55-.09.53s-.64.14-.67-.11V78.21c-.52.26-.42-.25-.87-.32-.26.29-.2-.13-.47-.11s-.21.2-.48.11c.14,1.06-.26,1.66-.1,2.45-.16,0-.47-.3-.57,0,.09.3.32.07.38.21-.33.23-.34.83-.48,1.28a5.07,5.07,0,0,1-.38-1.28c-.19-.21-.18,0-.38.11-.09-.31-.14-.12-.38-.11a2.51,2.51,0,0,0-1.06-.74c.15-.53-.33-.34-.29-.75.21,0,.19-.15.2-.32.31-.18.45-.56.76-.74.21-.38.36-.82.87-.85,0-.2-.12-.23-.1-.43a6,6,0,0,0,1.43-.43,3.11,3.11,0,0,1,.1-1.06c-.11-.16-.37-.17-.48-.32.38,0,.71,0,.86.21.18-.33.46.12.76,0-.13.54.44.29.39.75-.09.78-1.14.51-1.24,1.28.15.24.55.23,1,.21.59.29.82,1,1.62,1.06-.21-.55.17-.53.09-1.17,0-.27-.28-.32-.29-.64.37,0,.47.34.78.42,0-.28,0-.52.28-.42-.07-.32.1-.39.1-.64-.27.08-.18-.21-.29-.32a4.1,4.1,0,0,1-.87-.32c0-.22.27-.2.29-.42s-.41-.32-.38-.75h-.86c.05-.34-.26-.28-.28-.53a3.15,3.15,0,0,0-1,.1c.05-.65-.75-.44-.87-.1.05-.4-.07-.63-.38-.64-.49.34-1.07,1.42-.47,2,.14.06.49-.12.47.11a2.72,2.72,0,0,1-.47.75c-.25-.27.2-.23.09-.64a1.76,1.76,0,0,1-.76-1c-.37,0-.31-.37-.77-.22,0,.26-.18.24-.09.54.33.14.2,1,0,1.17a.54.54,0,0,1-.2-.53c-.48-.08-.47.39-.86.42a2.12,2.12,0,0,1-1-.64c.44-.08.58.15,1,.11.21-.23,0-.31,0-.64.53-.12.74-.6,1.25-.75a2,2,0,0,1-.19-.84h-1.44c-.21.3-.68.3-.76.74-.05-.16-.15-.27-.19-.43-.26,0-.6.1-.48-.31.7.16,1.56-.39,2.2-.65,0,.5.82.37.95.11a3.58,3.58,0,0,0-.19-.75c-.56.09-.84.49-1.44.54V71.5c-.51-.2-.61.5-.28.64a8,8,0,0,1-1.34-.11c.15.55-.44.3-.48.64.24.14.31,0,.38.11s-.2.2-.38.21c-.15-.61-.91-.55-1.63-.53a1.52,1.52,0,0,1-.57,1.06c0,.34.25.36.2.75a2.24,2.24,0,0,0,1-.32c-.19.58.53.12.58.42s-.45-.07-.38.22c0,.57,1,0,.86.74.36-.23.47-.17.86,0h.1c0-.12.27-.37.28-.1,0,.12-.15.11-.28.1,0,.27.4.6,0,.75-.12,0-.09-.2-.1-.32-.85-.08-1.28-.63-2.3-.53-.29-.1-.3-.52-.66-.54-.05.31-.3.38-.58.43a.82.82,0,0,0-.09-.53c-.37,0-.37.45-.77.42s-.46-.13-.77-.1c-.1,0-.06.21-.19.21s-.07-.13-.09-.21c-.23,0-.36.17-.67.1-.77-.53-2.24-.27-3.06-.74a8.33,8.33,0,0,1-2.1.53c-.22.41.17.42.28.75.36,0,.59,0,.67.32-.39-.15-.34.19-.48.32-.18-.09-.26-.28-.47-.32-.37.41-1.24.26-1.54.74.53,0,.71.34.77.86.5-.21.88,0,1.33-.11-.46.93-2.45.18-2.29,1.81.31.25.39.29.29.85.17,0,.2-.13.38-.11,0,.17,0,.41.1.43.13-.34,0,.44.28.32a.49.49,0,0,1,.86-.21c-.41.35-.57,1-1.05,1.28s-.59.62-1.15.63c.09.34-.15.33-.19.53.44.07.59-.18,1.05-.1.11-.31.41-.4.77-.43a6.39,6.39,0,0,1,1.53-1.7h.19c.1-.1,0-.39.29-.32,0-.07,0-.13.09-.11s0,.13-.09.11c0,.48-.26.56-.39.85.79.1,1-.47,1.63-.53a3.87,3.87,0,0,0-.1-1.17c.45.1.47-.27.86-.22a2.68,2.68,0,0,1,.67.75,1.29,1.29,0,0,1,1.06,1.49c.46-.07,0-.59.39-.64a6.24,6.24,0,0,0,.28,2.45c-.29.28-.1.4,0,.75s-.26.14-.19.43a21.11,21.11,0,0,0,0,3.08c.25.18.42.46.66.64.27.42.25,1.15.58,1.49-.11,0-.08.2-.09.33.39.15.49.65.67,1.06.29-.08.27.19.56.1,0-.45-.18-.35-.18-1-.06,0-.11-.09,0-.11v.11c.2-.06.17.15.18.31a3.71,3.71,0,0,1,.77.86,2.85,2.85,0,0,0,.38,1.6c.79.22,1.26.76,2.21.53a3.77,3.77,0,0,0,.38.75c.36-.08.46.12.76.1a1.15,1.15,0,0,0,.48.54v.32c.55.06.66.6,1.15.74.1-.14.09-.39.29-.42a4.4,4.4,0,0,0,.28,1c0,.21-.25.14-.19.43,0,.54-.3.65-.38,1.07-.19.74.39,1.14,0,1.49.17.2.47.25.67.42-.08.16-.31.15-.49.21a1.24,1.24,0,0,0,.87,1.39c.05.26-.17.23-.09.53.36.31.48.88,1.05,1a3.74,3.74,0,0,1,.48,1.49c-.1.14-.1.39-.19.54.13.06.17.22.19.42-.26.48.11,1,0,1.7-.52.35-.28,1.54-.48,2.24.14.3.39-.18.48.11.08.52-.33.49-.48.74s.31.09.19.43.11.51-.1.85c.1.73.42,1.1.2,1.71.28.25.25.85.57,1.06,0,.19.11.23.1.43a1.68,1.68,0,0,1,.57.32c.36-.07,1,.17,1.05-.21a.91.91,0,0,1-.57-.44c.07-.35-.39-.12-.29-.52s.27-.55.29-1a.39.39,0,0,0,.38-.43c0-.38-.33-.26-.28-.64.24-.33.64-1.38,0-1.49.64.18.61-.37.75-.74.52,0,.7-.3,1.06-.43.06-.5-.15-.69-.19-1.06h.77c0-.11.11-.09.19-.11.05-.26.08-.55.38-.53,0-.61.36-.74.57-1.07v-.75c.18-.19.3-.44.47-.63a8,8,0,0,0,.87-.32c0-.69.5-1.28.19-2a.52.52,0,0,0,.19-.53c.15,0,.17-.1.3-.11,0-.35.27-.47.37-.74.26-.28,0-.52.29-.64-.07-.33.1-.39.1-.64A2.63,2.63,0,0,0,273,99.09Zm-4.4-17.68c.06,0-.07.13-.09.1S268.53,81.38,268.55,81.41Zm-7.36-8.32c.29.11-.11.29-.1.43C260.8,73.42,261.14,73.16,261.19,73.09Zm-.39.54c.31,0,.34.19.68.1,0,.43-.38.45-.68.54Zm-2.95.21c-.06,0,.06-.13.09-.11S257.87,73.87,257.85,73.84Zm-2,15.34c0-.12.1-.06.1,0S255.83,89.24,255.83,89.18Zm.1.21c.22,0,.21.33.38.43C256.19,90.09,255.85,89.71,255.93,89.39Z"/><path class="cls-18" d="M292.47,74.69c-.14-.48-.59-.62-.48-1.38.68-.06.93-.6,1.44-.85.6.06.9-.19.95-.75h-.47c0,.08,0,.21-.1.21a6.21,6.21,0,0,0-1.82.64c0,.55-.46.48-.39,1.07-.11.22-.35.31-.37.64a7.17,7.17,0,0,0,.95.64A.27.27,0,0,1,292.47,74.69Z"/><path class="cls-18" d="M308.45,72.78c.23-.17.34-.47.58-.64-.38,0-.45-.49-.78-.43,0,0-.09.25-.19.21h-.58C307.36,72.7,308.18,72.44,308.45,72.78Z"/><path class="cls-18" d="M277.93,77.57c0-.28.36-.17.48-.32.1-.54-.22-.61-.19-1.06-.43.14-.56-.07-1,.1-.27-.06-.24-.44-.58-.42.12.51-.37.35-.37.74.26.09.24-.15.47-.1,0,.25-.37.22-.29.64.48-.15.38.36.67.42C277.25,77.35,277.83,77.46,277.93,77.57Z"/><path class="cls-18" d="M264.82,77.57c-.38-.11-.13-.27-.38-.54-.29.08-.28-.18-.57-.1-.14.2-.05.65-.48.54,0,.37.31.42.66.42C264,77.06,264.71,78.24,264.82,77.57Z"/><path class="cls-18" d="M281.66,81.41a1.7,1.7,0,0,1-.38-.32c.11-.63-.64-.73-.29-1.28a2.37,2.37,0,0,1-.39-.32c.15-.1.31-.16.3-.43a1.37,1.37,0,0,0-.77.21c.07.58-.16.83-.1,1.39a1.56,1.56,0,0,0,.48.21c0,.38-.32.59-.48.43a1.37,1.37,0,0,0,.2,1c-.17.1-.52,0-.49.32a6.31,6.31,0,0,1,1.54-.11C281.35,82,281.3,81.71,281.66,81.41Z"/><path class="cls-18" d="M279.08,81.83c.21-.11.57-.06.76-.21a2.58,2.58,0,0,1,0-1h-.48c0,.47-.21.13-.38.32C279,81.28,278.93,81.68,279.08,81.83Z"/><path class="cls-18" d="M311.88,84.92c.19,0,.08.35.3.32.2-.26.17-.79.57-.85-.51-.08-.82-.37-1.34-.43.07.51-.11.73-.1,1.18C311.58,85.42,311.56,84.86,311.88,84.92Z"/><path class="cls-18" d="M309.69,88.22c0,.38.22.46.38.64a1,1,0,0,1,.57-.74.38.38,0,0,1,.28.1c.32-.41.95-.45,1.26-.85,0-.76-.22-1.33-.2-2.13h-.37c.1.5-.06.74.09,1.28-.08,0-.12.08-.09.21a2.5,2.5,0,0,0-.87.64c-.34.2-.95.08-.95.64-.05.29.51-.08.48.21Z"/><path class="cls-18" d="M286.35,87.37c0,.3.32.09.56.32.08-.4-.14-.47-.47-.43C286.46,87.35,286.41,87.36,286.35,87.37Z"/><path class="cls-18" d="M307.67,91a1.13,1.13,0,0,1,.3.64c.39,0,.36-.52.37-1C308.11,90.44,307.78,90.75,307.67,91Z"/><path class="cls-18" d="M263.39,90.67v.43h.38C263.76,90.83,263.64,90.69,263.39,90.67Z"/><path class="cls-18" d="M264.44,91.2a.72.72,0,0,0-.09-.53h-.3C264,91,264.08,91.28,264.44,91.2Z"/><path class="cls-18" d="M264.53,91.1v.53c.21,0,.26-.07.39-.11Q264.91,91.12,264.53,91.1Z"/><path class="cls-18" d="M264.35,92.81c.34-.07.46.12.67.21,0-.31.4-.2.67-.21-.14-.71-.67-.62-1.25-.65.07-.29-.19-.21-.19-.42-.21-.12-.53-.13-.57-.43h-1.44c0,.2-.2.27-.19.54.39,0,.39-.35.85-.22s.46.57.87.64c.23.07.69-.13.76.11C264.18,92.39,264.3,92.53,264.35,92.81Z"/><path class="cls-18" d="M265.3,91.63c0-.14-.24-.09-.38-.11C264.71,91.92,265.41,92,265.3,91.63Z"/><path class="cls-18" d="M308.06,92.81a2,2,0,0,0,.58.63c.12-.33.44-.43.39-1A.54.54,0,0,0,308.06,92.81Z"/><path class="cls-18" d="M305.77,93.12c.26-.06.26-.41.38-.63a.47.47,0,0,0-.38-.11C305.58,92.79,305.64,92.46,305.77,93.12Z"/><path class="cls-18" d="M263.29,92.59V93c.33-.12.33,0,.67-.11C264,92.49,263.6,92.6,263.29,92.59Z"/><path class="cls-18" d="M265.87,93c.35,0,.66,0,.58-.43h-.58Z"/><path class="cls-18" d="M275.92,93c0,.2-.26.13-.19.42h.38C276.14,93.2,276.08,93,275.92,93Z"/><path class="cls-18" d="M308.82,94.72c.21.23.28,0,.59,0,0,.25-.21.46.08.54a.75.75,0,0,1,.87-.43c.09-.49-.31-.44-.48-.64,0-.35-.11-.52-.39-.53s-.08.46-.08.74C309.08,94.22,309,94.46,308.82,94.72Z"/><path class="cls-18" d="M299.35,95c.14.63-.36.76,0,1.07.3,0,.26-.29.48-.33A1.47,1.47,0,0,0,299.35,95Z"/><path class="cls-18" d="M305.67,97.92c.1.42.51.49.48,1.06.62-.16.52.48,1.15.32,0-.24.27-.12.28-.32-.07,0-.19,0-.19-.11.32-.14.17-.81.49-1-.22-.35.07-.71-.1-1a.47.47,0,0,0,.28-.53c-.23-.2-.42-.46-.86-.43C307.11,97.11,305.84,96.9,305.67,97.92Z"/><path class="cls-18" d="M303.85,97.17c-.14-.25-.45-.42-.38-.74-.26.07-.19-.22-.38-.22,0,.47-.23,0-.48.1,0,1.25,1.34,1,1.15,2.46.47.06.6.76,1.05.53.22-.41-.2-.87-.19-1.38A3.45,3.45,0,0,1,303.85,97.17Z"/><path class="cls-18" d="M309.21,98c0-.48-.6-.33-.76-.65-.5.44-.84,1.63-.11,2,0-.31,0-.54.21-.64.2.2.22.54.57.32-.05-.44-.38-.59-.39-1.06A.34.34,0,0,0,309.21,98Z"/><path class="cls-18" d="M311.31,97.6c-.31-.22-1.07-.18-1,.32C310.59,98.15,311.29,98,311.31,97.6Z"/><path class="cls-18" d="M312.37,98h-.67c-.09.15-.14.33-.39.31s-.18-.29-.47-.21c0,.28-.38.08-.29.42s.24-.13.48,0a11.64,11.64,0,0,1,1.34,1.07v.64c.51-.34.66.22,1.05.32s.23-.52.67-.43c.22.15.47.81.86.43-.21-.09-.3-.32-.29-.64-.25-.25-.6-.39-.77-.75v-.32C313.16,98.85,313,98.22,312.37,98Z"/><path class="cls-18" d="M307.3,100.47c0-.37-.34-.26-.29-.63a4.93,4.93,0,0,1-1.91-.43c-.09.19-.27.27-.2.64C305.82,100.06,306.25,100.61,307.3,100.47Z"/><path class="cls-18" d="M314.38,104.63c0-.5-.18-.74-.1-1.28-.19-.07-.22-.33-.39-.43,0-.81-.68-.94-.57-1.91-.18,0-.21-.12-.38-.11-.24.44.1,1.54-.29,1.81s-.19-.35-.57-.21c0-.3-.46-.13-.38-.53s.46,0,.38-.43c-.34-.41-1.31-.1-1.81-.32-.17.06,0,.5-.2.53a3.22,3.22,0,0,0-.95.32c-.13.32,0,.89-.39,1-.23-.25-.47,0-.76,0s0,.59-.19.64-.2-.32-.39-.11-.13.92-.48,1.07-.63.07-.76.32a2.56,2.56,0,0,1,.09,1.6c.19.07.26.28.29.53.05.48-.17.66-.1,1.17.28,0,.3.24.58.21.4-.19.63-.56,1.33-.42a2,2,0,0,1,1.82-.53,1.81,1.81,0,0,1,.58.95c.37-.19.26.25.67,0,0,.28,0,.61-.1.75a3,3,0,0,0,1.92.43c.24-.19.42-.46.76-.54-.05-.55.46-.48.39-1.06.32,0,.24-.51.57-.53-.1-.38.16-.61.19-1a8.1,8.1,0,0,0-.29-1.92C314.61,104.48,314.46,104.94,314.38,104.63Z"/><path class="cls-18" d="M292.09,101.22a3.3,3.3,0,0,0-.39,1.07,1.64,1.64,0,0,0-.86.74c-.07.37.14.42.1.75a2.5,2.5,0,0,1-.29.64c.21.48-.07.9.29,1.27.31,0,.4-.19.76-.1a10.7,10.7,0,0,1,.39-1.17v-.54c0-.11.1-.16.18-.21-.17-.47.19-.91.2-1.7C292.11,102,292.49,101.17,292.09,101.22Z"/><path class="cls-18" d="M319.63,108.46c0-.3,0-.58-.28-.52v.84c-.08.31-.45.28-.39.75.65-.1.22.32.2.64.6,0,.63-.73.86-1.17.14-.16.4-.2.48-.43C320.27,108.24,320.08,108.51,319.63,108.46Z"/><path class="cls-18" d="M318.58,109.74c-.08.23-.29.32-.29.64a.47.47,0,0,0-.37.11c-.17.21-.23.53-.48.63s-.52.64-.68,1.07c.31-.17.52,0,.86,0,.1-.25.39-.28.3-.74h.37c0-.61.76-.44.77-1.07C319,110,318.78,109.92,318.58,109.74Z"/><path class="cls-18" d="M312.08,110.06c-.11.16.31.64.38,1,.46,0,.77-.28.67-1C312.72,110.14,312.24,109.92,312.08,110.06Z"/><path class="cls-18" d="M268.75,113.36h.38C269.2,112.94,268.73,113,268.75,113.36Z"/><path class="cls-17" d="M259.59,86.77A1.25,1.25,0,0,0,258.34,88a3,3,0,0,0,1.25,2c.35,0,1.26-1.26,1.26-2A1.25,1.25,0,0,0,259.59,86.77Zm0,2a.75.75,0,0,1-.76-.74.76.76,0,0,1,.76-.75.77.77,0,0,1,.78.75A.76.76,0,0,1,259.59,88.74Z"/><path class="cls-19" d="M259.59,88.74a.75.75,0,0,1-.76-.74.76.76,0,0,1,.76-.75.77.77,0,0,1,.78.75A.76.76,0,0,1,259.59,88.74Z"/><path class="cls-17" d="M266.29,82.55A1.25,1.25,0,0,0,265,83.81a2.94,2.94,0,0,0,1.26,2c.34,0,1.26-1.26,1.26-2A1.26,1.26,0,0,0,266.29,82.55Zm0,2a.75.75,0,0,1-.77-.74.77.77,0,1,1,.77.74Z"/><path class="cls-19" d="M266.29,84.52a.75.75,0,0,1-.77-.74.77.77,0,1,1,.77.74Z"/><path class="cls-17" d="M284.84,83.47a1.25,1.25,0,0,0-1.26,1.26,2.91,2.91,0,0,0,1.26,2c.34,0,1.25-1.25,1.25-2A1.25,1.25,0,0,0,284.84,83.47Zm0,2a.76.76,0,0,1-.77-.75.77.77,0,0,1,1.54,0A.77.77,0,0,1,284.84,85.45Z"/><path class="cls-19" d="M284.84,85.45a.76.76,0,0,1-.77-.75.77.77,0,0,1,1.54,0A.77.77,0,0,1,284.84,85.45Z"/><path class="cls-17" d="M300.05,76.62a1.25,1.25,0,0,0-1.25,1.25,3,3,0,0,0,1.25,2c.34,0,1.26-1.26,1.26-2A1.25,1.25,0,0,0,300.05,76.62Zm0,2a.75.75,0,1,1,.77-.74A.76.76,0,0,1,300.05,78.59Z"/><path class="cls-19" d="M300.05,78.59a.75.75,0,1,1,.77-.74A.76.76,0,0,1,300.05,78.59Z"/><path class="cls-17" d="M304.62,87.13a1.25,1.25,0,0,0-1.25,1.25,3,3,0,0,0,1.25,2c.35,0,1.26-1.26,1.26-2A1.25,1.25,0,0,0,304.62,87.13Zm0,2a.76.76,0,0,1-.77-.74.77.77,0,0,1,1.54,0A.75.75,0,0,1,304.62,89.1Z"/><path class="cls-19" d="M304.62,89.1a.76.76,0,0,1-.77-.74.77.77,0,0,1,1.54,0A.75.75,0,0,1,304.62,89.1Z"/><path class="cls-17" d="M293,86.78A1.26,1.26,0,0,0,291.78,88,3,3,0,0,0,293,90c.35,0,1.26-1.26,1.26-1.95A1.25,1.25,0,0,0,293,86.78Zm0,2a.76.76,0,0,1-.77-.74.77.77,0,0,1,1.54,0A.75.75,0,0,1,293,88.75Z"/><path class="cls-19" d="M293,88.75a.76.76,0,0,1-.77-.74.77.77,0,0,1,1.54,0A.75.75,0,0,1,293,88.75Z"/><path class="cls-17" d="M314.31,102.17a1.26,1.26,0,0,0-1.26,1.26,3,3,0,0,0,1.26,1.95c.35,0,1.26-1.26,1.26-1.95A1.25,1.25,0,0,0,314.31,102.17Zm0,2a.74.74,0,1,1,.77-.74A.76.76,0,0,1,314.31,104.14Z"/><path class="cls-19" d="M314.31,104.14a.74.74,0,1,1,.77-.74A.76.76,0,0,1,314.31,104.14Z"/><path class="cls-17" d="M262.34,91.58a1.25,1.25,0,0,0-1.26,1.25,2.94,2.94,0,0,0,1.26,2c.34,0,1.25-1.26,1.25-2A1.25,1.25,0,0,0,262.34,91.58Zm0,2a.75.75,0,1,1,0-1.49.75.75,0,1,1,0,1.49Z"/><path class="cls-19" d="M262.34,93.55a.75.75,0,1,1,0-1.49.75.75,0,1,1,0,1.49Z"/><path class="cls-17" d="M280.6,77.51a1.26,1.26,0,0,0-1.25,1.26,2.94,2.94,0,0,0,1.25,2c.35,0,1.26-1.25,1.26-2A1.26,1.26,0,0,0,280.6,77.51Zm0,2a.75.75,0,1,1,.77-.75A.75.75,0,0,1,280.6,79.49Z"/><path class="cls-19" d="M280.6,79.49a.75.75,0,1,1,.77-.75A.75.75,0,0,1,280.6,79.49Z"/><path class="cls-17" d="M290.51,77.17a1.26,1.26,0,0,0-1.26,1.26,2.94,2.94,0,0,0,1.26,1.95c.34,0,1.26-1.26,1.26-1.95A1.25,1.25,0,0,0,290.51,77.17Zm0,2a.74.74,0,1,1,.77-.74A.76.76,0,0,1,290.51,79.14Z"/><path class="cls-19" d="M290.51,79.14a.74.74,0,1,1,.77-.74A.76.76,0,0,1,290.51,79.14Z"/><rect class="cls-15" x="291.18" y="136.78" width="15.21" height="1.32"/><rect class="cls-14" x="291.18" y="139.19" width="5.72" height="1.32"/><path class="cls-14" d="M292.8,126.73a.79.79,0,1,0-.78-.79A.79.79,0,0,0,292.8,126.73Z"/><path class="cls-14" d="M294.37,127.24a.34.34,0,0,0-.3-.32H294a16.42,16.42,0,0,0-2.43,0h-.07a.36.36,0,0,0-.29.32l-.15,2.73a.35.35,0,0,0,.33.37h0a.34.34,0,0,0,.35-.33l0-.32h.08s0,0,0,.06v2.74a.44.44,0,0,0,.44.44.44.44,0,0,0,.44-.44v-2.74s0-.06,0-.08h.15a.19.19,0,0,0,0,.08v2.74a.44.44,0,0,0,.44.44.44.44,0,0,0,.43-.44v-2.74a.15.15,0,0,0,0-.06h.09V130a.35.35,0,0,0,.35.33h0a.35.35,0,0,0,.33-.37Z"/><rect class="cls-14" x="296.65" y="125.67" width="30.1" height="1.55"/><rect class="cls-14" x="296.65" y="128.34" width="30.1" height="1.54"/><rect class="cls-14" x="296.65" y="131" width="30.1" height="1.55"/><rect class="cls-18" x="296.65" y="125.67" width="28.08" height="1.55"/><rect class="cls-20" x="296.65" y="128.34" width="10.6" height="1.54"/><rect class="cls-17" x="296.65" y="131" width="14.13" height="1.54"/><rect class="cls-15" x="291.03" y="118.47" width="16.49" height="2.14"/><rect class="cls-15" x="247.1" y="136.78" width="15.21" height="1.32"/><rect class="cls-14" x="247.1" y="139.19" width="5.72" height="1.32"/><path class="cls-14" d="M251.3,130.11l-.86-2.82a.34.34,0,0,0-.26-.23h0a2.55,2.55,0,0,0-1.92,0h0a.34.34,0,0,0-.25.23l-.87,2.82a.35.35,0,0,0,.24.44l.1,0a.35.35,0,0,0,.33-.25l.45-1.46h0c-.11.55-.21,1.1-.32,1.64a.41.41,0,0,0,.33.51v1.48a.44.44,0,0,0,.43.44.44.44,0,0,0,.44-.44V131h.12v1.45a.44.44,0,0,0,.43.44.44.44,0,0,0,.44-.44V131a.41.41,0,0,0,.33-.51c-.11-.54-.22-1.09-.32-1.64h0l.45,1.46a.34.34,0,0,0,.33.25l.1,0A.34.34,0,0,0,251.3,130.11Z"/><path class="cls-14" d="M249.21,126.73a.79.79,0,1,0-.79-.79A.8.8,0,0,0,249.21,126.73Z"/><rect class="cls-14" x="253.14" y="125.67" width="30.1" height="1.55"/><rect class="cls-14" x="253.14" y="128.34" width="30.1" height="1.54"/><rect class="cls-14" x="253.14" y="131" width="30.1" height="1.55"/><rect class="cls-18" x="253.14" y="125.67" width="11.42" height="1.55"/><rect class="cls-20" x="253.14" y="128.34" width="4.36" height="1.54"/><rect class="cls-17" x="253.14" y="131" width="27.19" height="1.55"/><rect class="cls-15" x="247.1" y="118.47" width="27.88" height="2.14"/><path class="cls-21" d="M375.56,320.16l-14.08,61.63a1.44,1.44,0,0,0,1.4,1.76h0a1.45,1.45,0,0,0,1.39-1.05l17.63-62.34Z"/><path class="cls-21" d="M411.59,320.16l14.08,61.63a1.44,1.44,0,0,1-1.4,1.76h0a1.44,1.44,0,0,1-1.39-1.05l-17.64-62.34Z"/><path class="cls-22" d="M347,320.16l-14.08,61.63a1.44,1.44,0,0,0,1.4,1.76h0a1.44,1.44,0,0,0,1.39-1.05l17.64-62.34Z"/><path class="cls-23" d="M383,320.16l14.08,61.63a1.44,1.44,0,0,1-1.4,1.76h0a1.45,1.45,0,0,1-1.39-1.05l-17.63-62.34Z"/><path class="cls-24" d="M386.75,259.32H421a3.34,3.34,0,0,1,3.34,3.4l-.69,43c0,8-5.69,14.39-13.63,14.39H340.53v-2.68H372a9.33,9.33,0,0,0,9.32-8.77l2.76-46.86A2.69,2.69,0,0,1,386.75,259.32Z"/><path class="cls-21" d="M384.06,308.6l3.6-49.28h-.91a2.69,2.69,0,0,0-2.69,2.53l-2.76,46.86a9.34,9.34,0,0,1-8.41,8.73,9.1,9.1,0,0,1-.91,0H340.53v2.68h32.26C379.19,320.16,383.69,315,384.06,308.6Z"/><g id="Plants"><g id="Plant_1" data-name="Plant 1"><path class="cls-25" d="M331.85,361.44a5.48,5.48,0,0,1,5.33-6.75h23.41a5.49,5.49,0,0,1,5.34,6.75l-4.05,17a5.49,5.49,0,0,1-5.34,4.21H341.23a5.48,5.48,0,0,1-5.33-4.21Z"/><g id="Leaf"><path class="cls-26" d="M343,309.49c-2.65,6.89,3.53,8.39,6.95,8.28,11.91,11.25,12.91-2.32,15.22-8.28s13.24-6.95,6.29-10.25S346.26,300.89,343,309.49Z"/><path class="cls-27" d="M364.77,303a.26.26,0,0,1-.15.35c-10.48,4.17-15.32,13.77-17.3,24s-1.07,21-.08,27.35a.29.29,0,0,1-.23.32.27.27,0,0,1-.31-.23c-1-6.41-1.91-17.25.08-27.55s6.91-20.12,17.64-24.39A.28.28,0,0,1,364.77,303Z"/><path class="cls-26" d="M321.76,324.8C328.91,311,334.23,316,336,320.17c7.28,5.62,8.6,9.26,1,13.57C330.34,337.49,312.83,342,321.76,324.8Z"/><path class="cls-27" d="M344.78,329.66c1.76,7.69,2.41,18.16,2.46,25.45a.27.27,0,0,1-.27.27.28.28,0,0,1-.28-.27c-.05-7.27-.7-17.69-2.45-25.32-.87-3.83-2-6.91-3.47-8.55a3.3,3.3,0,0,0-2.32-1.28,4.37,4.37,0,0,0-2.89,1.27,107.47,107.47,0,0,0-8.23,7.53,7.76,7.76,0,0,0-1.05,1.31.25.25,0,0,1,.11.17.28.28,0,0,1-.22.32.6.6,0,0,1-.23,0,.38.38,0,0,1-.24-.21.42.42,0,0,1,0-.27,1.36,1.36,0,0,1,.09-.23,7.3,7.3,0,0,1,1.15-1.45,108.34,108.34,0,0,1,8.28-7.58,4.85,4.85,0,0,1,3.26-1.4,3.85,3.85,0,0,1,2.71,1.47C342.73,322.63,343.9,325.83,344.78,329.66Zm-18.72.36h0Zm.16.18Z"/><path class="cls-26" d="M314.54,348.16c1.85-14.83,10.59-7.94,14.56-3,11.58,0,21.18,14.23,3.31,19.52S312.22,366.69,314.54,348.16Z"/><path class="cls-27" d="M329.28,345a.27.27,0,0,1,0,.39,58.11,58.11,0,0,0-5.34,6.8c-1.87,2.8-3.47,5.82-3.86,8.27a.27.27,0,0,1-.31.23.27.27,0,0,1-.23-.31c.41-2.58,2.06-5.68,3.94-8.49a58.66,58.66,0,0,1,5.4-6.88A.27.27,0,0,1,329.28,345Z"/><path class="cls-26" d="M351.93,350.14c-2.91-7.14,5.41-10.48,9.93-11.25,2.43-4.74,8.4-12.44,12.91-5.29,5.62,8.93,2,23.49,0,23.82S355.57,359.08,351.93,350.14Z"/><path class="cls-27" d="M361.63,339.07A.28.28,0,0,1,362,339c2.36,1.58,7.76,6.7,10.69,14.7a.26.26,0,0,1-.15.35.28.28,0,0,1-.36-.16C369.3,346,364,341,361.71,339.45A.27.27,0,0,1,361.63,339.07Z"/><path class="cls-27" d="M351,342.23c-2.31,3.68-3.45,9.06-3.78,12.9a.27.27,0,0,1-.3.25.26.26,0,0,1-.24-.3c.33-3.87,1.47-9.35,3.86-13.14a9.08,9.08,0,0,1,4.62-4c1.92-.64,4.18-.4,6.81,1.08a.27.27,0,0,1,.11.38.28.28,0,0,1-.38.1c-2.53-1.43-4.63-1.62-6.36-1A8.6,8.6,0,0,0,351,342.23Z"/><path class="cls-27" d="M345.14,348.59a29.23,29.23,0,0,1,1.77,6.35.27.27,0,1,1-.54.08,29.4,29.4,0,0,0-1.73-6.23,16,16,0,0,0-3.39-5.38,6.25,6.25,0,0,0-5-2c-2,.17-4.27,1.32-6.94,3.93a.28.28,0,1,1-.38-.4c2.71-2.65,5.13-3.89,7.27-4.08a6.8,6.8,0,0,1,5.45,2.12A16.25,16.25,0,0,1,345.14,348.59Z"/></g></g><g id="Plant_2" data-name="Plant 2"><g id="Leafs"><g id="Leaf-2" data-name="Leaf"><path class="cls-28" d="M185.83,303.41c-6.36,3.95-10.33,11-11.51,14-4.3,20.29-9.49,55.82,4.11,35.64S189,311.55,185.83,303.41Z"/><path class="cls-29" d="M185,333.38A35.07,35.07,0,0,1,179.1,336c-.31.54-1.06,2-.36,1.57S183.27,334.42,185,333.38Z"/><path class="cls-29" d="M176.11,325.56a27.32,27.32,0,0,0,3.55,4c0,.46-.14,1.69-.49,1.13S177,326.88,176.11,325.56Z"/><path class="cls-29" d="M181.69,321.28c-1.54,2.3-4.48,19.34-5.76,27.57.36,1.18,1.13,2.83,1.33,0S180.3,329.26,181.69,321.28Z"/></g><g id="Leaf-3" data-name="Leaf"><path class="cls-30" d="M160.88,288.33c-6.58,11.19-5.12,32.08-3.56,41.13.8,6.8,9.66,23.49,14,31,2.83-6.76,7.84-24.56,5.21-41.67S165,291.35,160.88,288.33Z"/><path class="cls-31" d="M159.44,323.73a52.64,52.64,0,0,0,7.3,5.71c.3.87,1,2.7.17,1.83S161.48,325.77,159.44,323.73Z"/><path class="cls-31" d="M172.4,315.32a35.15,35.15,0,0,1-5.6,4.6c-.08.66-.16,1.93.42,1.24S170.94,316.94,172.4,315.32Z"/><path class="cls-31" d="M175.18,337.68a47.1,47.1,0,0,1-8.34,5c-.09.77-.15,2.64.72,1.86S173,339.49,175.18,337.68Z"/><path class="cls-31" d="M165.78,307.37c1.59,3.81,2,29.26,2,41.51-.72,1.59-1.55,3.72-1.22-.48S166.89,319.48,165.78,307.37Z"/></g><g id="Leaf-4" data-name="Leaf"><path class="cls-32" d="M147.72,318.49c-3.07,17.11,5.67,27.06,10.42,29.89,1.92,6.49,6,15.57,6.85,0S153.84,322,147.72,318.49Z"/><path class="cls-29" d="M152.92,339.89a26,26,0,0,0,4.76.5c.35.3,1.23,1.17.63,1S154.35,340.23,152.92,339.89Z"/><path class="cls-29" d="M157.31,332.28a21,21,0,0,1-1.56,3.66c.12.32.5,1.16.62.68S157,333.42,157.31,332.28Z"/><path class="cls-29" d="M152.35,330.58c1.64,1.26,7.75,12.59,10.61,18.1,0,.92-.12,2.27-.94.29S155.23,335.88,152.35,330.58Z"/></g></g><path class="cls-33" d="M152.11,351.4a2.74,2.74,0,0,1,2.74-2.75h27.42A2.75,2.75,0,0,1,185,351.4v20.29a11,11,0,0,1-11,11h-11a11,11,0,0,1-11-11Z"/></g></g><g id="Graphs"><g id="Graph_3" data-name="Graph 3"><path class="cls-5" d="M112,82.14H247.44V228a5.48,5.48,0,0,1-5.49,5.48H117.47A5.48,5.48,0,0,1,112,228Z"/><path class="cls-34" d="M150.37,206a11.1,11.1,0,0,0-3.48-8.09,1.19,1.19,0,0,1-.16-1.58l2.68-3.47a1,1,0,0,1,1.52-.17,17.61,17.61,0,1,1-29,14.41A1,1,0,0,1,123,206h4.39a1.2,1.2,0,0,1,1.15,1.1,11,11,0,0,0,21.88-1.1Z"/><path class="cls-35" d="M138.79,194a10.18,10.18,0,0,0-10.29,8.77,1.21,1.21,0,0,1-1.16,1.1H123a1,1,0,0,1-1.06-1.1,16.74,16.74,0,0,1,16.9-15.35,17.28,17.28,0,0,1,8.75,2.36,1,1,0,0,1,.31,1.49l-2.46,3.64a1.2,1.2,0,0,1-1.55.34A10.64,10.64,0,0,0,138.79,194Z"/><rect class="cls-36" x="164.08" y="187.43" width="74.58" height="36.74" rx="5.48"/><circle class="cls-37" cx="222.76" cy="205.52" r="10.97"/><path class="cls-38" d="M174.5,197.85h31.81a1.09,1.09,0,0,1,1.09,1.09h0a1.09,1.09,0,0,1-1.09,1.1H174.5a1.1,1.1,0,0,1-1.1-1.1h0A1.09,1.09,0,0,1,174.5,197.85Z"/><path class="cls-38" d="M178.89,211h27.42a1.09,1.09,0,0,1,1.09,1.09h0a1.09,1.09,0,0,1-1.09,1.1H178.89a1.1,1.1,0,0,1-1.1-1.1h0A1.09,1.09,0,0,1,178.89,211Z"/><path class="cls-39" d="M186.56,204.43h19.75a1.09,1.09,0,0,1,1.09,1.09h0a1.09,1.09,0,0,1-1.09,1.1H186.56a1.09,1.09,0,0,1-1.09-1.1h0A1.09,1.09,0,0,1,186.56,204.43Z"/><rect class="cls-40" x="120.76" y="90.91" width="117.9" height="89.39" rx="5.48"/><path class="cls-41" d="M223.84,109.9a1.09,1.09,0,0,1-.88,1.28c-1.74.33-3.44,1.85-5.19,4.37a75.2,75.2,0,0,0-4.93,8.92l-.07.14a73,73,0,0,1-4.92,8.91c-1.72,2.48-3.79,4.56-6.37,4.82-4.53.45-8.46-1.82-11.86-3.93l-.8-.5a46.71,46.71,0,0,0-4.12-2.38,9.42,9.42,0,0,0-4.4-1.14,2.59,2.59,0,0,0-1.62.83,12.05,12.05,0,0,0-2,2.6c-1,1.69-2,3.81-3.14,6.14-.39.82-.79,1.67-1.21,2.53a56.57,56.57,0,0,1-5.7,9.72,18.53,18.53,0,0,1-8.54,6.64c-3.46,1.18-6.23.92-8.51-.26a15.21,15.21,0,0,1-5.22-5.05c-.49-.7-1-1.43-1.43-2.13l-.5-.76a26.23,26.23,0,0,0-1.81-2.5c-1.21-1.45-2.34-2.18-3.68-2.13a6.76,6.76,0,0,0-3.8,1.74,24,24,0,0,0-4,4.35,66.64,66.64,0,0,0-6.06,10.29,1.1,1.1,0,0,1-2-1,69.31,69.31,0,0,1,6.28-10.65,26.51,26.51,0,0,1,4.39-4.75,8.83,8.83,0,0,1,5.08-2.22c2.36-.09,4.08,1.28,5.45,2.91a29.72,29.72,0,0,1,2,2.7c.18.26.35.53.53.8.45.69.89,1.37,1.36,2a13.24,13.24,0,0,0,4.44,4.36c1.67.87,3.81,1.15,6.79.14a16.53,16.53,0,0,0,7.51-5.9,54.52,54.52,0,0,0,5.46-9.35c.4-.81.79-1.62,1.17-2.42,1.13-2.37,2.2-4.63,3.28-6.42a14.54,14.54,0,0,1,2.34-3.07,4.78,4.78,0,0,1,3-1.42,11.48,11.48,0,0,1,5.44,1.35,48.32,48.32,0,0,1,4.35,2.52l.78.48c3.45,2.14,6.79,4,10.48,3.61,1.53-.16,3.1-1.46,4.79-3.89a74.92,74.92,0,0,0,4.81-8.74l0,0a75.71,75.71,0,0,1,5.09-9.2c1.8-2.6,3.94-4.78,6.59-5.27A1.1,1.1,0,0,1,223.84,109.9Z"/><circle class="cls-9" cx="179.98" cy="129.85" r="4.39"/><path class="cls-42" d="M180,135.33a5.49,5.49,0,1,1,5.49-5.48A5.49,5.49,0,0,1,180,135.33Zm0-8.77a3.29,3.29,0,1,0,3.29,3.29A3.29,3.29,0,0,0,180,126.56Z"/><path class="cls-6" d="M112,72.27a5.49,5.49,0,0,1,5.49-5.49H242a5.49,5.49,0,0,1,5.49,5.49v9.87H112Z"/><circle class="cls-43" cx="120.21" cy="74.46" r="1.65"/><circle class="cls-44" cx="127.34" cy="74.46" r="1.65"/><circle class="cls-45" cx="134.47" cy="74.46" r="1.65"/></g><g id="Graph_2" data-name="Graph 2"><path class="cls-46" d="M314,183.81h36.19v84.46H319.45a5.48,5.48,0,0,1-5.48-5.49Z"/><rect class="cls-43" x="317.26" y="162.43" width="120.1" height="102.55" rx="5.48"/><rect class="cls-47" x="334.26" y="228.23" width="13.16" height="27.97" rx="2.74"/><rect class="cls-48" x="358.39" y="194.23" width="13.16" height="61.97" rx="2.74"/><rect class="cls-49" x="406.64" y="173.94" width="13.16" height="82.26" rx="2.74"/><rect class="cls-50" x="382.51" y="210.68" width="13.16" height="45.52" rx="2.74"/></g><g id="Graph_1" data-name="Graph 1"><rect class="cls-9" x="88.95" y="215.39" width="97.07" height="45.52" rx="5.48"/><path class="cls-51" d="M135.56,236.78h41.13a1.1,1.1,0,0,1,1.1,1.1h0a1.1,1.1,0,0,1-1.1,1.1H135.56a1.1,1.1,0,0,1-1.09-1.1h0A1.09,1.09,0,0,1,135.56,236.78Z"/><path class="cls-52" d="M135.56,243.36h41.13a1.1,1.1,0,0,1,1.1,1.1h0a1.1,1.1,0,0,1-1.1,1.1H135.56a1.09,1.09,0,0,1-1.09-1.1h0A1.09,1.09,0,0,1,135.56,243.36Z"/><path class="cls-53" d="M135.56,249.94h41.13a1.1,1.1,0,0,1,1.1,1.1h0a1.1,1.1,0,0,1-1.1,1.1H135.56a1.09,1.09,0,0,1-1.09-1.1h0A1.09,1.09,0,0,1,135.56,249.94Z"/><rect class="cls-54" x="134.47" y="223.07" width="19.64" height="9.32" rx="2.74"/><rect class="cls-55" x="158.15" y="223.07" width="19.64" height="9.32" rx="2.74"/><path class="cls-56" d="M110.89,254.88a14.27,14.27,0,0,0,13-20.13,1,1,0,0,0-1.45-.46l-9.92,5.44a1.09,1.09,0,0,1-1.62-1V227.46a1,1,0,0,0-1.1-1.06,14.26,14.26,0,0,0,1.1,28.48Z"/><path class="cls-43" d="M126.4,229c-2.58-5.74-6.35-7.42-12.69-8a1.08,1.08,0,0,0-1.18,1.08v13.47a1.09,1.09,0,0,0,1.6,1l11.78-6.11A1.07,1.07,0,0,0,126.4,229Z"/></g></g><g id="Man"><g id="Head"><path class="cls-57" d="M74.69,136.7c6,1.1,7.38-2.19,7.68-5.76s1.92-1.37,1.92-3.29c-1.92-4.93-1.43-9.08-1.37-11.79h-9l-14,17.55v7.13l14.8,1.64Z"/><g id="Face"><path class="cls-58" d="M79.88,130.42a.16.16,0,0,0-.08.19,2.45,2.45,0,0,0,2.77,1.7.15.15,0,0,0,.11-.17.14.14,0,0,0-.16-.12,2.2,2.2,0,0,1-1.26-.15,2.24,2.24,0,0,1-1.21-1.37A.13.13,0,0,0,79.88,130.42Z"/><ellipse class="cls-59" cx="81.14" cy="122.37" rx="0.69" ry="1.62" transform="translate(-6.91 4.88) rotate(-3.3)"/><path class="cls-60" d="M80.91,118.21a1.93,1.93,0,0,0-1.08.91.14.14,0,0,1-.19,0,.15.15,0,0,1,0-.19,2.23,2.23,0,0,1,1.24-1,1.51,1.51,0,0,1,1,.08,2.83,2.83,0,0,1,1,.89.14.14,0,0,1,0,.19.14.14,0,0,1-.19,0,2.53,2.53,0,0,0-.91-.8A1.13,1.13,0,0,0,80.91,118.21Z"/></g><path class="cls-61" d="M54.68,126.83c.22,7.68,5.21,8.87,7.67,8.5,9.6,1.1,10.42-5.48,8.78-5.76s-3.29-6.85-.82-7.68c2-.65,3,1.38,3.29,2.47,2.19,1.1,1.37-7.68,3-7.68s7.4,1.65,13.44-5.75,0-14.54-4.94-13.71c-3.46.57-5.48,2.74-14.8,4.93-7.46,1.76-11.06,6.86-11.25,11C56.6,109.28,54.4,117.23,54.68,126.83Z"/></g><g id="Leg"><path class="cls-62" d="M47.55,375.25v-8.5H59.61v12.61H53Z"/><path class="cls-63" d="M46.45,382.93c-.44-.66,0-9.87,0-9.87s.27-2.47,3,0c4.48,4,3.29,3.29,6.58,0,2.75-2.76,5.76-1.1,14.26,3.84s3,6,1.64,6S47,383.75,46.45,382.93Z"/><path class="cls-64" d="M100.11,375.25l-1.29-9.05,12.07-.27,2.46,13.43H105.6Z"/><path class="cls-65" d="M99,382.93c-.44-.66,0-9.87,0-9.87s.27-2.47,3,0c4.49,4,3.29,3.29,6.58,0,2.76-2.76,5.76-1.1,14.26,3.84s3,6,1.65,6S99.57,383.75,99,382.93Z"/><path class="cls-66" d="M46.45,366.2V219.51H93.89c5.94,47.8,17.87,144.06,18.09,146.69.28,3.29-13.16,1.92-14,.55-.66-1.1-17.64-73.58-26-109.68-3.47,35.83-10.53,108-11,110.23C60.43,370,46.45,368.67,46.45,366.2Z"/><path class="cls-67" d="M66,235.47c.37,4.2,4.09,16.15,6,21.88L68.66,289.7,66,235.47c0-.23,0-.43,0-.61Z"/></g><g id="Body"><path class="cls-68" d="M59.34,139.17c-1.37-.82-1.74,3.11-1.92,4.66l17.82.55c-.27-1.65,1.1-4.5,0-3.84S60.28,139.73,59.34,139.17Z"/><path class="cls-69" d="M146.26,124.36a4.34,4.34,0,0,0,.27,3.29,5.44,5.44,0,0,0,3.57,2.74,4.19,4.19,0,0,0,4.38-3.56c.37-2.58-3.38-2.19-3-2.74.55-.82,3.56-5.49,1.64-5.21S148.73,126,149,123s-1.92-3.29-1.65-2.19S146.81,122.72,146.26,124.36Z"/><path class="cls-70" d="M36.58,157.27C39.65,145,50.84,143,56.05,143.56c11.42.27,35.48,1,40.3,1.64,6,.82,23,7.4,23.58,7.4s25.5-24.67,26.33-25.22,4.66,2.19,4.66,2.74-6.31,11.52-15.63,26-15.08,13.71-19.47,13.43c-3.51-.22-14.44-.82-19.47-1.09v52.37c-7.67-.18-26.21-.44-38.93,0-15.91.55-12.34-1.65-11-3.29,1.1-1.32.46-7.68,0-10.7A136.12,136.12,0,0,0,33,198.94C26.43,195.65,32.74,172.62,36.58,157.27Z"/><path class="cls-71" d="M39.32,192.91c.55-6.58,5.85-19.47,6.86-28.52l.27,42.46v0C46.4,202.74,39,197,39.32,192.91Z"/><g class="cls-72"><path class="cls-73" d="M85.11,166.86c2.41.88,8.5,1.46,11.24,1.65.83,10.51,2,31,0,28.79-2.46-2.74-2.46-5.49-3.29-11.24s-7.13-4.94-4.66-9.87C90.38,172.24,87,168.32,85.11,166.86Z"/></g></g></g><g id="Woman"><g id="Leg-2" data-name="Leg"><g id="Foot_2" data-name="Foot 2"><path class="cls-74" d="M309.73,375.25l-.55-9.87h9.6v9.05l-5.43,2.47Z"/><path class="cls-75" d="M292.51,377.44a29.57,29.57,0,0,0,14-6c3.84-2.57,6,3,8.22,3.29s3.57-4.38,4.66-2.74-.54,10.42-2.46,11-28.79.82-29.34,0S284.29,378.54,292.51,377.44Z"/></g><g id="Foot_1" data-name="Foot 1"><path class="cls-76" d="M261.2,374.43l1.65-8.5h8.77l-1.65,8.5-4.11,2.47Z"/><path class="cls-77" d="M245,377.44a29.57,29.57,0,0,0,14-6c3.84-2.57,6,3,8.22,3.29s3.57-4.38,4.66-2.74-.54,10.42-2.46,11-28.79.82-29.34,0S236.8,378.54,245,377.44Z"/></g><path class="cls-78" d="M261.75,363.46c.22-3.73,12.06-94.87,17.82-139.29V214.3c13.07-.73,40.47.22,45.52,9.87,6.3,12.06-1.37,32.35-2.47,40.31s-3.29,101.17-3.56,103.09-9.6,1.1-10.15,0c-.44-.87-7.68-72.2-11.24-107.76,0,0-20.84,105.3-25.23,106.39S261.47,368.12,261.75,363.46Z"/><path class="cls-67" d="M293.77,232.94l4.12,27.15-5.49,25.77Z"/></g><g id="Head-2" data-name="Head"><rect class="cls-79" x="241.95" y="45.39" width="92.68" height="79.14" rx="4.23"/><path class="cls-80" d="M287,127.38c.88,13.38-2.55,20.56-4.38,22.48h25.22l26.05,30.44c15.08-11,4.94-21.39-4.11-29.62S316,123.27,314.94,117.23c-.87-4.82-3.65-3.84-4.93-2.74-3-5.21-7.13-5.76-11-6S285.88,110.65,287,127.38Z"/><path class="cls-81" d="M291.91,138.62c-1.1-1.37-1.46-11.79-1.1-17,10.42,4.39,13.16-1.92,12.89-.27s.55,2.74,1.65,4.11,2.15,3.56,2.46,2.74c.83-2.19,3.57-4.11,4.39-.82s-2.38,5-4.66,6.3L307,143l-5.48,2.47-4.94-1.65.28-4.11C296.39,139.72,293.67,140.81,291.91,138.62Z"/><path class="cls-67" d="M302,137.52a15.21,15.21,0,0,1-5.21,2.2v1.92C299.2,141,301.27,138.62,302,137.52Z"/><g id="Face-2" data-name="Face"><ellipse class="cls-59" cx="293.63" cy="128.59" rx="0.51" ry="1.28" transform="translate(-5.41 13.15) rotate(-2.54)"/><ellipse class="cls-59" cx="299.76" cy="128.32" rx="0.51" ry="1.28" transform="translate(-5.4 13.42) rotate(-2.54)"/><path class="cls-60" d="M293,125.29a3.55,3.55,0,0,0-.51.59.12.12,0,0,1-.17,0,.11.11,0,0,1,0-.16,2.92,2.92,0,0,1,.55-.63,1.15,1.15,0,0,1,.59-.3c.43,0,.87.22,1.36.82a.12.12,0,0,1,0,.17.11.11,0,0,1-.16,0c-.49-.59-.85-.77-1.15-.73A.92.92,0,0,0,293,125.29Z"/><path class="cls-60" d="M299.65,125.24c-.36.06-.67.35-1,.86a.12.12,0,0,1-.2-.14,2,2,0,0,1,1.19-.95,2.2,2.2,0,0,1,1.65.69.12.12,0,0,1,0,.17.11.11,0,0,1-.16,0C300.45,125.35,300,125.19,299.65,125.24Z"/><path class="cls-82" d="M295.67,132.84l-.26,0c-.24,0-.55-.11-.65-.35a.48.48,0,0,1,.11-.49,8.66,8.66,0,0,0,1.25-3.28.13.13,0,0,1,.16-.1.14.14,0,0,1,.11.16,8.81,8.81,0,0,1-1.3,3.38.31.31,0,0,0-.08.23.62.62,0,0,0,.43.18,1.45,1.45,0,0,0,1.05-.22.14.14,0,1,1,.22.16A1.39,1.39,0,0,1,295.67,132.84Z"/><path class="cls-83" d="M298.42,133.76a.11.11,0,0,1,.09.14,3.51,3.51,0,0,1-.35.87,1.38,1.38,0,0,1-.5.54.82.82,0,0,1-.67.07,1.81,1.81,0,0,1-.73-.53.11.11,0,0,1,0-.16.11.11,0,0,1,.17,0,1.59,1.59,0,0,0,.63.46.57.57,0,0,0,.48,0,1.27,1.27,0,0,0,.42-.46,3.9,3.9,0,0,0,.32-.81A.11.11,0,0,1,298.42,133.76Z"/></g></g><g id="Body-2" data-name="Body"><path class="cls-84" d="M308.64,141.64c-3.51,2-11,1-14.26.27l.27,3-2.19,1.64c-3.38,22.49-9.6,68-7.41,69.92s14.63,1.74,20.57,1.37c.55-22.39,1.7-67.72,1.92-69.92C307.81,145.2,310,140.81,308.64,141.64Z"/><g id="Blazer"><path class="cls-85" d="M280.12,152.6c2.41-4.6,10.69-6.94,14.26-7.4-1.32,1.54-3.66,25.23-4.66,36.47L287,207.44c-1.64,10.15,1,18.65,0,19.2-2.46,1.37-18.91-3.57-15.08-4.39,3.08-.66,6.77-10.15,8.23-14.81l-11-28.79C271.8,171.89,277.71,157.21,280.12,152.6Z"/><path class="cls-86" d="M259.8,189.35c-3.07-4.83-2.92-16.46-2.46-21.67h32.9a65.88,65.88,0,0,0,0,13.71c.82,6.59,16.45,26.88,13.71,26.88s-33.45,2.46-32.9,0C271.59,202.23,263.64,195.38,259.8,189.35Z"/><path class="cls-87" d="M258.73,191.27c-1.65-1.86-2.74-5.82-1.09-6.31,1.85-.55,4.11.82,4.11,2.74,0,1.4,3.56,1.65,3.84,4.66S260.6,193.37,258.73,191.27Z"/></g><g id="Blazer-2" data-name="Blazer"><path class="cls-88" d="M326.18,154.25c-1.75-4.39-12.61-8-17.82-9.32-2.85,2.85-3.75,39-3.84,56.76,0,12.88-.27,23.46,1.92,24.4,3.84,1.64,27.15.82,23.58-1.92-2.85-2.19-2.83-14.81-2.46-20.84h4.66c6.58-.27,7.95-5.76,6.58-9.87S328.38,159.73,326.18,154.25Z"/><g class="cls-89"><path class="cls-90" d="M304.47,201.69l.17,0c1.63.31,14.4,2.65,22.86,1.88s3.56,21.67,3.56,21.67c-2.37,1.18-14.69,5-17.54,3.29-3.57-2.2,8.77-5.49,7.4-9.6-1.06-3.19-4-1.77-4.94-4.11s2.47-4.94,1.1-6.58c-3.41-4.09-10.86-6.22-12.44-6.55Z"/></g><path class="cls-91" d="M319.27,191l-3.83-19.74,8.22,21.66-11.79,1.37Z"/><path class="cls-92" d="M312.75,203.06c1.1-1.76-.09-6.58-.82-8.78l-11.79,1.1c0-2.41-3.39-3.29-4.94-3.29l1.37,2.19c-.55.28-2.19-.27-3.29-.82s-1.92-4.11-3.56-1.65.82,5.49,3,7.13C294.49,200.26,306.81,202.23,312.75,203.06Z"/></g></g></g><circle class="cls-43" cx="75.92" cy="30.52" r="1.65"/><circle class="cls-44" cx="83.05" cy="30.52" r="1.65"/><circle class="cls-45" cx="90.17" cy="30.52" r="1.65"/></svg>