<svg id="Layer_1" data-name="Layer 1" xmlns="http://www.w3.org/2000/svg" xmlns:xlink="http://www.w3.org/1999/xlink" viewBox="0 0 609.21 385.82"><defs><style>.cls-1{mask:url(#mask);filter:url(#luminosity-noclip-13);}.cls-10,.cls-12,.cls-14,.cls-16,.cls-18,.cls-2,.cls-20,.cls-22,.cls-24,.cls-4,.cls-6,.cls-8{mix-blend-mode:multiply;}.cls-2{fill:url(#Безымянный_градиент_15);}.cls-3{mask:url(#mask-2);filter:url(#luminosity-noclip-18);}.cls-4{fill:url(#Безымянный_градиент_4);}.cls-5{mask:url(#mask-3);filter:url(#luminosity-noclip-19);}.cls-6{fill:url(#Безымянный_градиент_4-2);}.cls-7{mask:url(#mask-4);filter:url(#luminosity-noclip-20);}.cls-8{fill:url(#Безымянный_градиент_4-3);}.cls-9{mask:url(#mask-5);filter:url(#luminosity-noclip-21);}.cls-10{fill:url(#Безымянный_градиент_4-4);}.cls-11{mask:url(#mask-6);filter:url(#luminosity-noclip-22);}.cls-12{fill:url(#Безымянный_градиент_4-5);}.cls-13{mask:url(#mask-7);filter:url(#luminosity-noclip-14);}.cls-14{fill:url(#Безымянный_градиент_4-6);}.cls-15{mask:url(#mask-8);filter:url(#luminosity-noclip-23);}.cls-16{fill:url(#Безымянный_градиент_3);}.cls-17{mask:url(#mask-9);filter:url(#luminosity-noclip-24);}.cls-18{fill:url(#Безымянный_градиент_2);}.cls-19{mask:url(#mask-10);filter:url(#luminosity-noclip-15);}.cls-20{fill:url(#Безымянный_градиент_4-7);}.cls-21{mask:url(#mask-11);filter:url(#luminosity-noclip-16);}.cls-22{fill:url(#Безымянный_градиент_4-8);}.cls-23{mask:url(#mask-12);filter:url(#luminosity-noclip-17);}.cls-24{fill:url(#Безымянный_градиент_4-9);}.cls-25{fill:none;}.cls-26{clip-path:url(#clip-path);}.cls-27{mask:url(#mask-13);}.cls-28{fill:#e4f1f7;}.cls-29{mask:url(#mask-14);}.cls-30{fill:url(#linear-gradient);}.cls-31{mask:url(#mask-15);}.cls-32{fill:url(#linear-gradient-2);}.cls-33{mask:url(#mask-16);}.cls-34{fill:url(#linear-gradient-3);}.cls-35{mask:url(#mask-17);}.cls-36{fill:url(#linear-gradient-4);}.cls-37{mask:url(#mask-18);}.cls-38{fill:url(#linear-gradient-5);}.cls-39{mask:url(#mask-19);}.cls-40{fill:url(#linear-gradient-6);}.cls-41{mask:url(#mask-20);}.cls-42{fill:url(#linear-gradient-7);}.cls-43{mask:url(#mask-21);}.cls-44{fill:url(#linear-gradient-8);}.cls-45{mask:url(#mask-22);}.cls-46{fill:url(#linear-gradient-9);}.cls-47{fill:#5192d6;}.cls-47,.cls-48,.cls-61,.cls-87{opacity:0.5;}.cls-49{fill:#1d43b8;}.cls-50{fill:#173f5f;}.cls-51{fill:#4399f0;}.cls-52,.cls-66{fill:#fff;}.cls-53{fill:url(#linear-gradient-10);}.cls-54{fill:#d55534;}.cls-55{fill:#385e72;}.cls-56{mask:url(#mask-23);}.cls-57{fill:url(#Безымянный_градиент_148);}.cls-58{mask:url(#mask-24);}.cls-59{fill:url(#Безымянный_градиент_146);}.cls-60{fill:#ffcc7e;}.cls-61{fill:url(#Безымянный_градиент_133);}.cls-62{fill:url(#Безымянный_градиент_122);}.cls-63{fill:url(#Безымянный_градиент_111);}.cls-64{fill:#227dd9;}.cls-65{fill:#16348f;}.cls-66{opacity:0.75;}.cls-67{fill:url(#Безымянный_градиент_122-2);}.cls-68{fill:url(#Безымянный_градиент_122-3);}.cls-69{fill:url(#Безымянный_градиент_122-4);}.cls-70{fill:url(#Безымянный_градиент_122-5);}.cls-71{fill:url(#Безымянный_градиент_122-6);}.cls-72{fill:url(#Безымянный_градиент_122-7);}.cls-73{fill:url(#Безымянный_градиент_122-8);}.cls-74{fill:url(#Безымянный_градиент_122-9);}.cls-75{fill:url(#linear-gradient-11);}.cls-76{fill:#8bbbe8;}.cls-77{fill:#2f3b7a;}.cls-78{fill:#1e2859;}.cls-79{fill:url(#linear-gradient-12);}.cls-80{fill:url(#Безымянный_градиент_241);}.cls-81{fill:#d6969b;}.cls-82{fill:#facbce;}.cls-83{fill:url(#Безымянный_градиент_337);}.cls-84{fill:url(#Безымянный_градиент_161);}.cls-85{fill:url(#Безымянный_градиент_260);}.cls-86{fill:#faafc2;}.cls-87{fill:url(#linear-gradient-13);}.cls-88{fill:url(#linear-gradient-14);}.cls-89{fill:url(#Безымянный_градиент_93);}.cls-90{fill:url(#linear-gradient-15);}.cls-91{fill:url(#linear-gradient-16);}.cls-92{fill:url(#Безымянный_градиент_161-2);}.cls-93{fill:url(#linear-gradient-17);}.cls-94{fill:url(#linear-gradient-18);}.cls-95{fill:url(#linear-gradient-19);}.cls-96{fill:url(#Безымянный_градиент_6);}.cls-97{fill:url(#Безымянный_градиент_159);}.cls-98{fill:#bf8286;}.cls-99{fill:#fab9be;}.cls-100{fill:url(#Безымянный_градиент_11);}.cls-101{filter:url(#luminosity-noclip-12);}.cls-102{filter:url(#luminosity-noclip-11);}.cls-103{filter:url(#luminosity-noclip-10);}.cls-104{filter:url(#luminosity-noclip-9);}.cls-105{filter:url(#luminosity-noclip-8);}.cls-106{filter:url(#luminosity-noclip-7);}.cls-107{filter:url(#luminosity-noclip-6);}.cls-108{filter:url(#luminosity-noclip-5);}.cls-109{filter:url(#luminosity-noclip-4);}.cls-110{filter:url(#luminosity-noclip-3);}.cls-111{filter:url(#luminosity-noclip-2);}.cls-112{filter:url(#luminosity-noclip);}</style><filter id="luminosity-noclip" x="169.73" y="-15241.33" width="179.14" height="32766" filterUnits="userSpaceOnUse" color-interpolation-filters="sRGB"><feFlood flood-color="#fff" result="bg"/><feBlend in="SourceGraphic" in2="bg"/></filter><mask id="mask" x="169.73" y="-15241.33" width="316.12" height="32766" maskUnits="userSpaceOnUse"><g class="cls-112"/></mask><linearGradient id="Безымянный_градиент_15" x1="-4190.2" y1="149.8" x2="-3967.36" y2="299.78" gradientTransform="matrix(-1, 0, 0, 1, -3702.97, 0)" gradientUnits="userSpaceOnUse"><stop offset="0" stop-color="#fff"/><stop offset="1" stop-color="#4d4d4d"/></linearGradient><filter id="luminosity-noclip-2" x="283.63" y="-15241.33" width="24.17" height="32766" filterUnits="userSpaceOnUse" color-interpolation-filters="sRGB"><feFlood flood-color="#fff" result="bg"/><feBlend in="SourceGraphic" in2="bg"/></filter><mask id="mask-2" x="283.63" y="-15241.33" width="24.17" height="32766" maskUnits="userSpaceOnUse"><g class="cls-111"/></mask><linearGradient id="Безымянный_градиент_4" x1="-2261.63" y1="173.13" x2="-2034.88" y2="135.07" gradientTransform="matrix(-1, 0, -0.19, 1, -1817.52, 0)" gradientUnits="userSpaceOnUse"><stop offset="0" stop-color="#fff"/><stop offset="1" stop-color="#1a1a1a"/></linearGradient><filter id="luminosity-noclip-3" x="256.98" y="-15241.33" width="23" height="32766" filterUnits="userSpaceOnUse" color-interpolation-filters="sRGB"><feFlood flood-color="#fff" result="bg"/><feBlend in="SourceGraphic" in2="bg"/></filter><mask id="mask-3" x="256.98" y="-15241.33" width="23" height="32766" maskUnits="userSpaceOnUse"><g class="cls-110"/></mask><linearGradient id="Безымянный_градиент_4-2" x1="-2263.19" y1="181.37" x2="-2030.48" y2="142.32" xlink:href="#Безымянный_градиент_4"/><filter id="luminosity-noclip-4" x="230.33" y="-15241.33" width="24.28" height="32766" filterUnits="userSpaceOnUse" color-interpolation-filters="sRGB"><feFlood flood-color="#fff" result="bg"/><feBlend in="SourceGraphic" in2="bg"/></filter><mask id="mask-4" x="230.33" y="-15241.33" width="24.28" height="32766" maskUnits="userSpaceOnUse"><g class="cls-109"/></mask><linearGradient id="Безымянный_градиент_4-3" x1="-2263.04" y1="182.36" x2="-2030.34" y2="143.31" xlink:href="#Безымянный_градиент_4"/><filter id="luminosity-noclip-5" x="203.69" y="-15241.33" width="27.29" height="32766" filterUnits="userSpaceOnUse" color-interpolation-filters="sRGB"><feFlood flood-color="#fff" result="bg"/><feBlend in="SourceGraphic" in2="bg"/></filter><mask id="mask-5" x="203.69" y="-15241.33" width="27.29" height="32766" maskUnits="userSpaceOnUse"><g class="cls-108"/></mask><linearGradient id="Безымянный_градиент_4-4" x1="-2263.64" y1="178.83" x2="-2030.95" y2="139.78" xlink:href="#Безымянный_градиент_4"/><filter id="luminosity-noclip-6" x="177.04" y="-15241.33" width="24.81" height="32766" filterUnits="userSpaceOnUse" color-interpolation-filters="sRGB"><feFlood flood-color="#fff" result="bg"/><feBlend in="SourceGraphic" in2="bg"/></filter><mask id="mask-6" x="177.04" y="-15241.33" width="24.81" height="32766" maskUnits="userSpaceOnUse"><g class="cls-107"/></mask><linearGradient id="Безымянный_градиент_4-5" x1="-2261.84" y1="189.67" x2="-2029.14" y2="150.62" xlink:href="#Безымянный_градиент_4"/><filter id="luminosity-noclip-7" x="390.21" y="-15241.33" width="31.27" height="32766" filterUnits="userSpaceOnUse" color-interpolation-filters="sRGB"><feFlood flood-color="#fff" result="bg"/><feBlend in="SourceGraphic" in2="bg"/></filter><mask id="mask-7" x="390.21" y="-15241.33" width="31.27" height="32766" maskUnits="userSpaceOnUse"><g class="cls-106"/></mask><linearGradient id="Безымянный_градиент_4-6" x1="-2270.39" y1="137.93" x2="-2037.71" y2="98.88" xlink:href="#Безымянный_градиент_4"/><filter id="luminosity-noclip-8" x="340.3" y="-15241.33" width="86.71" height="32766" filterUnits="userSpaceOnUse" color-interpolation-filters="sRGB"><feFlood flood-color="#fff" result="bg"/><feBlend in="SourceGraphic" in2="bg"/></filter><mask id="mask-8" x="340.3" y="-15241.33" width="86.71" height="32766" maskUnits="userSpaceOnUse"><g class="cls-105"/></mask><linearGradient id="Безымянный_градиент_3" x1="404.05" y1="375.61" x2="364.13" y2="311.1" gradientUnits="userSpaceOnUse"><stop offset="0" stop-color="#ccc"/><stop offset="1" stop-color="#1a1a1a"/></linearGradient><filter id="luminosity-noclip-9" x="348.26" y="-15241.33" width="43.27" height="32766" filterUnits="userSpaceOnUse" color-interpolation-filters="sRGB"><feFlood flood-color="#fff" result="bg"/><feBlend in="SourceGraphic" in2="bg"/></filter><mask id="mask-9" x="348.26" y="-15241.33" width="43.27" height="32766" maskUnits="userSpaceOnUse"><g class="cls-104"/></mask><linearGradient id="Безымянный_градиент_2" x1="400.82" y1="296.97" x2="332.09" y2="341.15" gradientUnits="userSpaceOnUse"><stop offset="0" stop-color="#fff"/><stop offset="1" stop-color="#1a1a1a"/></linearGradient><filter id="luminosity-noclip-10" x="363.57" y="-15241.33" width="28.04" height="32766" filterUnits="userSpaceOnUse" color-interpolation-filters="sRGB"><feFlood flood-color="#fff" result="bg"/><feBlend in="SourceGraphic" in2="bg"/></filter><mask id="mask-10" x="363.57" y="-15241.33" width="28.04" height="32766" maskUnits="userSpaceOnUse"><g class="cls-103"/></mask><linearGradient id="Безымянный_градиент_4-7" x1="-2268.26" y1="150.74" x2="-2035.57" y2="111.69" xlink:href="#Безымянный_градиент_4"/><filter id="luminosity-noclip-11" x="336.92" y="-15241.33" width="28.88" height="32766" filterUnits="userSpaceOnUse" color-interpolation-filters="sRGB"><feFlood flood-color="#fff" result="bg"/><feBlend in="SourceGraphic" in2="bg"/></filter><mask id="mask-11" x="336.92" y="-15241.33" width="28.88" height="32766" maskUnits="userSpaceOnUse"><g class="cls-102"/></mask><linearGradient id="Безымянный_градиент_4-8" x1="-2267.67" y1="152.8" x2="-2035.96" y2="113.92" xlink:href="#Безымянный_градиент_4"/><filter id="luminosity-noclip-12" x="310.27" y="-15241.33" width="26.76" height="32766" filterUnits="userSpaceOnUse" color-interpolation-filters="sRGB"><feFlood flood-color="#fff" result="bg"/><feBlend in="SourceGraphic" in2="bg"/></filter><mask id="mask-12" x="310.27" y="-15241.33" width="26.76" height="32766" maskUnits="userSpaceOnUse"><g class="cls-101"/></mask><linearGradient id="Безымянный_градиент_4-9" x1="-2266.26" y1="162.81" x2="-2033.57" y2="123.76" xlink:href="#Безымянный_градиент_4"/><clipPath id="clip-path"><rect class="cls-25" width="609.21" height="366.8"/></clipPath><filter id="luminosity-noclip-13" x="169.73" y="149.98" width="316.12" height="214.28" filterUnits="userSpaceOnUse" color-interpolation-filters="sRGB"><feFlood flood-color="#fff" result="bg"/><feBlend in="SourceGraphic" in2="bg"/></filter><mask id="mask-13" x="169.73" y="149.98" width="316.12" height="214.28" maskUnits="userSpaceOnUse"><g class="cls-1"><path class="cls-2" d="M176.13,364.25h266a6.38,6.38,0,0,0,6.28-5.22l37.37-201.49a6.39,6.39,0,0,0-6.28-7.56h-266a6.39,6.39,0,0,0-6.28,5.22L169.84,356.7A6.39,6.39,0,0,0,176.13,364.25Z"/></g></mask><filter id="luminosity-noclip-14" x="390.21" y="100.36" width="31.27" height="67.71" filterUnits="userSpaceOnUse" color-interpolation-filters="sRGB"><feFlood flood-color="#fff" result="bg"/><feBlend in="SourceGraphic" in2="bg"/></filter><mask id="mask-14" x="390.21" y="100.36" width="31.27" height="67.71" maskUnits="userSpaceOnUse"><g class="cls-13"><path class="cls-14" d="M392.78,168.07H407.3a2.56,2.56,0,0,0,2.53-2.1l11.61-62.57a2.57,2.57,0,0,0-2.53-3H404.39a2.55,2.55,0,0,0-2.52,2.1L390.26,165A2.57,2.57,0,0,0,392.78,168.07Z"/></g></mask><linearGradient id="linear-gradient" x1="-2270.39" y1="137.93" x2="-2037.71" y2="98.88" gradientTransform="matrix(-1, 0, -0.19, 1, -1817.52, 0)" gradientUnits="userSpaceOnUse"><stop offset="0" stop-color="#f0ab00"/><stop offset="1" stop-color="#ffd985"/></linearGradient><filter id="luminosity-noclip-15" x="363.57" y="117.76" width="28.04" height="50.31" filterUnits="userSpaceOnUse" color-interpolation-filters="sRGB"><feFlood flood-color="#fff" result="bg"/><feBlend in="SourceGraphic" in2="bg"/></filter><mask id="mask-15" x="363.57" y="117.76" width="28.04" height="50.31" maskUnits="userSpaceOnUse"><g class="cls-19"><path class="cls-20" d="M366.14,168.07h14.52a2.55,2.55,0,0,0,2.52-2.1l8.39-45.16a2.58,2.58,0,0,0-2.53-3H374.52a2.58,2.58,0,0,0-2.53,2.11L363.61,165A2.57,2.57,0,0,0,366.14,168.07Z"/></g></mask><linearGradient id="linear-gradient-2" x1="-2268.26" y1="150.74" x2="-2035.57" y2="111.69" xlink:href="#linear-gradient"/><filter id="luminosity-noclip-16" x="336.92" y="113.13" width="28.88" height="54.94" filterUnits="userSpaceOnUse" color-interpolation-filters="sRGB"><feFlood flood-color="#fff" result="bg"/><feBlend in="SourceGraphic" in2="bg"/></filter><mask id="mask-16" x="336.92" y="113.13" width="28.88" height="54.94" maskUnits="userSpaceOnUse"><g class="cls-21"><path class="cls-22" d="M339.49,168.07H354a2.57,2.57,0,0,0,2.53-2.1l9.21-49.8a2.57,2.57,0,0,0-2.52-3H348.71a2.57,2.57,0,0,0-2.53,2.11L337,165A2.57,2.57,0,0,0,339.49,168.07Z"/></g></mask><linearGradient id="linear-gradient-3" x1="-2267.67" y1="152.8" x2="-2035.96" y2="113.92" xlink:href="#linear-gradient"/><filter id="luminosity-noclip-17" x="310.27" y="124.68" width="26.76" height="43.39" filterUnits="userSpaceOnUse" color-interpolation-filters="sRGB"><feFlood flood-color="#fff" result="bg"/><feBlend in="SourceGraphic" in2="bg"/></filter><mask id="mask-17" x="310.27" y="124.68" width="26.76" height="43.39" maskUnits="userSpaceOnUse"><g class="cls-23"><path class="cls-24" d="M312.84,168.07h14.52a2.56,2.56,0,0,0,2.53-2.1l7.1-38.25a2.57,2.57,0,0,0-2.53-3H319.94a2.57,2.57,0,0,0-2.53,2.1L310.32,165A2.57,2.57,0,0,0,312.84,168.07Z"/></g></mask><linearGradient id="linear-gradient-4" x1="-2266.26" y1="162.81" x2="-2033.57" y2="123.76" xlink:href="#linear-gradient"/><filter id="luminosity-noclip-18" x="283.63" y="137.9" width="24.17" height="30.18" filterUnits="userSpaceOnUse" color-interpolation-filters="sRGB"><feFlood flood-color="#fff" result="bg"/><feBlend in="SourceGraphic" in2="bg"/></filter><mask id="mask-18" x="283.63" y="137.9" width="24.17" height="30.18" maskUnits="userSpaceOnUse"><g class="cls-3"><path class="cls-4" d="M286.2,168.07h14.52a2.57,2.57,0,0,0,2.53-2.1l4.5-25a2.57,2.57,0,0,0-2.53-3H290.7a2.57,2.57,0,0,0-2.53,2.1l-4.5,25A2.57,2.57,0,0,0,286.2,168.07Z"/></g></mask><linearGradient id="linear-gradient-5" x1="-2261.63" y1="173.13" x2="-2034.88" y2="135.07" xlink:href="#linear-gradient"/><filter id="luminosity-noclip-19" x="256.98" y="144.95" width="23" height="23.13" filterUnits="userSpaceOnUse" color-interpolation-filters="sRGB"><feFlood flood-color="#fff" result="bg"/><feBlend in="SourceGraphic" in2="bg"/></filter><mask id="mask-19" x="256.98" y="144.95" width="23" height="23.13" maskUnits="userSpaceOnUse"><g class="cls-5"><path class="cls-6" d="M259.55,168.07h14.52a2.57,2.57,0,0,0,2.53-2.1l3.34-18a2.58,2.58,0,0,0-2.53-3H262.89a2.57,2.57,0,0,0-2.53,2.1L257,165A2.57,2.57,0,0,0,259.55,168.07Z"/></g></mask><linearGradient id="linear-gradient-6" x1="-2263.19" y1="181.37" x2="-2030.48" y2="142.32" xlink:href="#linear-gradient"/><filter id="luminosity-noclip-20" x="230.33" y="138.03" width="24.28" height="30.04" filterUnits="userSpaceOnUse" color-interpolation-filters="sRGB"><feFlood flood-color="#fff" result="bg"/><feBlend in="SourceGraphic" in2="bg"/></filter><mask id="mask-20" x="230.33" y="138.03" width="24.28" height="30.04" maskUnits="userSpaceOnUse"><g class="cls-7"><path class="cls-8" d="M232.91,168.07h14.51A2.56,2.56,0,0,0,250,166l4.62-24.9a2.57,2.57,0,0,0-2.53-3H237.53a2.57,2.57,0,0,0-2.53,2.1L230.38,165A2.57,2.57,0,0,0,232.91,168.07Z"/></g></mask><linearGradient id="linear-gradient-7" x1="-2263.04" y1="182.36" x2="-2030.34" y2="143.31" xlink:href="#linear-gradient"/><filter id="luminosity-noclip-21" x="203.69" y="121.82" width="27.29" height="46.26" filterUnits="userSpaceOnUse" color-interpolation-filters="sRGB"><feFlood flood-color="#fff" result="bg"/><feBlend in="SourceGraphic" in2="bg"/></filter><mask id="mask-21" x="203.69" y="121.82" width="27.29" height="46.26" maskUnits="userSpaceOnUse"><g class="cls-9"><path class="cls-10" d="M206.26,168.07h14.52a2.57,2.57,0,0,0,2.53-2.1l7.62-41.11a2.57,2.57,0,0,0-2.53-3H213.89a2.56,2.56,0,0,0-2.53,2.1L203.73,165A2.57,2.57,0,0,0,206.26,168.07Z"/></g></mask><linearGradient id="linear-gradient-8" x1="-2263.64" y1="178.83" x2="-2030.95" y2="139.78" xlink:href="#linear-gradient"/><filter id="luminosity-noclip-22" x="177.04" y="135.17" width="24.81" height="32.9" filterUnits="userSpaceOnUse" color-interpolation-filters="sRGB"><feFlood flood-color="#fff" result="bg"/><feBlend in="SourceGraphic" in2="bg"/></filter><mask id="mask-22" x="177.04" y="135.17" width="24.81" height="32.9" maskUnits="userSpaceOnUse"><g class="cls-11"><path class="cls-12" d="M179.61,168.07h14.52a2.57,2.57,0,0,0,2.53-2.1l5.15-27.76a2.57,2.57,0,0,0-2.53-3H184.76a2.57,2.57,0,0,0-2.53,2.1L177.08,165A2.57,2.57,0,0,0,179.61,168.07Z"/></g></mask><linearGradient id="linear-gradient-9" x1="-2261.84" y1="189.67" x2="-2029.14" y2="150.62" xlink:href="#linear-gradient"/><linearGradient id="linear-gradient-10" x1="182.25" y1="161.96" x2="234.95" y2="161.96" gradientUnits="userSpaceOnUse"><stop offset="0" stop-color="#008fd3"/><stop offset="1" stop-color="#9dc9fa"/></linearGradient><filter id="luminosity-noclip-23" x="340.3" y="300.03" width="86.71" height="85.26" filterUnits="userSpaceOnUse" color-interpolation-filters="sRGB"><feFlood flood-color="#fff" result="bg"/><feBlend in="SourceGraphic" in2="bg"/></filter><mask id="mask-23" x="340.3" y="300.03" width="86.71" height="85.26" maskUnits="userSpaceOnUse"><g class="cls-15"><path class="cls-16" d="M391.53,300c-23.54,0-46.15,19.08-50.5,42.62s11.21,42.63,34.75,42.63,46.16-19.08,50.51-42.63S415.08,300,391.53,300Zm-12.66,68.52c-8.24,0-14.87-3.85-18.5-9.85a22.7,22.7,0,0,1-2.61-16.05c2.65-14.3,16.38-25.89,30.68-25.89s23.76,11.59,21.11,25.89S393.18,368.55,378.87,368.55Z"/></g></mask><linearGradient id="Безымянный_градиент_148" x1="404.05" y1="375.61" x2="364.13" y2="311.1" gradientUnits="userSpaceOnUse"><stop offset="0" stop-color="#fa6496"/><stop offset="1" stop-color="#5192d6"/></linearGradient><filter id="luminosity-noclip-24" x="348.26" y="300.03" width="43.27" height="31.77" filterUnits="userSpaceOnUse" color-interpolation-filters="sRGB"><feFlood flood-color="#fff" result="bg"/><feBlend in="SourceGraphic" in2="bg"/></filter><mask id="mask-24" x="348.26" y="300.03" width="43.27" height="31.77" maskUnits="userSpaceOnUse"><g class="cls-17"><path class="cls-18" d="M388.44,316.76,391.53,300c-17.15,0-33.81,10.14-43.27,24.75l13.9,7C367.9,322.92,378,316.76,388.44,316.76Z"/></g></mask><linearGradient id="Безымянный_градиент_146" x1="400.82" y1="296.97" x2="332.09" y2="341.15" gradientUnits="userSpaceOnUse"><stop offset="0" stop-color="#fff"/><stop offset="1" stop-color="#fff"/></linearGradient><linearGradient id="Безымянный_градиент_133" x1="-1616.6" y1="40.98" x2="-1547.5" y2="40.98" gradientTransform="matrix(1, 0, -0.19, 1, 1945.59, 0)" gradientUnits="userSpaceOnUse"><stop offset="0" stop-color="#fff"/><stop offset="0.24" stop-color="#fbfdfe"/><stop offset="0.48" stop-color="#eef6fc"/><stop offset="0.73" stop-color="#daebf8"/><stop offset="0.99" stop-color="#bddbf2"/><stop offset="1" stop-color="#bbdaf2"/></linearGradient><linearGradient id="Безымянный_градиент_122" x1="11010.07" y1="12364.42" x2="11010.07" y2="12353.68" gradientTransform="matrix(1, 0, 0, 0.76, -10865.6, -9331)" gradientUnits="userSpaceOnUse"><stop offset="0" stop-color="#aad2f2"/><stop offset="1" stop-color="#fff"/></linearGradient><linearGradient id="Безымянный_градиент_111" x1="180.27" y1="102.99" x2="160.38" y2="68.54" gradientUnits="userSpaceOnUse"><stop offset="0" stop-color="#4399f0"/><stop offset="1" stop-color="#fff"/></linearGradient><linearGradient id="Безымянный_градиент_122-2" x1="169.73" y1="61.01" x2="169.73" y2="50.28" gradientTransform="matrix(1, 0, 0, 1, 0, 0)" xlink:href="#Безымянный_градиент_122"/><linearGradient id="Безымянный_градиент_122-3" x1="5840.15" y1="1571.4" x2="5840.15" y2="1560.67" gradientTransform="matrix(1, 0, 0, 1, -5683.99, -1506.83)" xlink:href="#Безымянный_градиент_122"/><linearGradient id="Безымянный_градиент_122-4" x1="9906.9" y1="5455.26" x2="9906.9" y2="5444.52" gradientTransform="matrix(1, 0, 0, 0.91, -9759.44, -4912.31)" xlink:href="#Безымянный_градиент_122"/><linearGradient id="Безымянный_градиент_122-5" x1="9090.17" y1="19946.97" x2="9090.17" y2="19936.24" gradientTransform="matrix(1, 0, 0, 0.68, -8938.36, -13462.63)" xlink:href="#Безымянный_градиент_122"/><linearGradient id="Безымянный_градиент_122-6" x1="6114.71" y1="1741.21" x2="6114.71" y2="1730.47" gradientTransform="matrix(1, 0, 0, -1, -5931.41, 1795.65)" xlink:href="#Безымянный_градиент_122"/><linearGradient id="Безымянный_градиент_122-7" x1="10048.86" y1="5772.4" x2="10048.86" y2="5761.67" gradientTransform="matrix(1, 0, 0, -0.91, -9855.89, 5342.85)" xlink:href="#Безымянный_градиент_122"/><linearGradient id="Безымянный_градиент_122-8" x1="10968.72" y1="12784.66" x2="10968.72" y2="12773.92" gradientTransform="matrix(1, 0, 0, -0.76, -10775.64, 9820.32)" xlink:href="#Безымянный_градиент_122"/><linearGradient id="Безымянный_градиент_122-9" x1="8898.63" y1="20329.15" x2="8898.63" y2="20318.42" gradientTransform="matrix(1, 0, 0, -0.68, -8708.04, 13913.92)" xlink:href="#Безымянный_градиент_122"/><linearGradient id="linear-gradient-11" x1="429.55" y1="286.31" x2="490.14" y2="286.31" gradientTransform="matrix(1, 0, 0, 1, 0, 0)" xlink:href="#linear-gradient"/><linearGradient id="linear-gradient-12" x1="479.74" y1="258.07" x2="551.11" y2="357.24" gradientTransform="matrix(1, 0, 0, 1, 0, 0)" xlink:href="#linear-gradient"/><linearGradient id="Безымянный_градиент_241" x1="3246.14" y1="233.2" x2="3275.81" y2="237.4" gradientTransform="matrix(-1, 0, 0, 1, 3777.45, 0)" gradientUnits="userSpaceOnUse"><stop offset="0" stop-color="#d6969b"/><stop offset="0.11" stop-color="#e1a1a6"/><stop offset="0.32" stop-color="#efaeb3"/><stop offset="0.57" stop-color="#f7b7bc"/><stop offset="0.99" stop-color="#fab9be"/></linearGradient><linearGradient id="Безымянный_градиент_337" x1="525.32" y1="200.07" x2="530.92" y2="200.07" gradientUnits="userSpaceOnUse"><stop offset="0" stop-color="#facbce"/><stop offset="0.27" stop-color="#f7c7ca"/><stop offset="0.55" stop-color="#efbabe"/><stop offset="0.83" stop-color="#e1a6aa"/><stop offset="1" stop-color="#d6969b"/></linearGradient><linearGradient id="Безымянный_градиент_161" x1="3214.15" y1="282.51" x2="3301.43" y2="282.51" gradientTransform="matrix(-0.99, -0.01, 0.01, 0.99, 3699.06, 52.26)" gradientUnits="userSpaceOnUse"><stop offset="0" stop-color="#d6969b"/><stop offset="0.99" stop-color="#fab9be"/></linearGradient><linearGradient id="Безымянный_градиент_260" x1="3281.62" y1="314.26" x2="3348.36" y2="314.26" gradientTransform="matrix(-1, 0, 0, 1, 3777.45, 0)" gradientUnits="userSpaceOnUse"><stop offset="0" stop-color="#d6969b"/><stop offset="0.99" stop-color="#d6969b"/></linearGradient><linearGradient id="linear-gradient-13" x1="135.88" y1="276.31" x2="144.11" y2="364.5" gradientTransform="matrix(1, 0, -0.04, 1, 409.5, 0)" gradientUnits="userSpaceOnUse"><stop offset="0" stop-color="#dd1d80" stop-opacity="0"/><stop offset="1" stop-color="#e72287"/></linearGradient><linearGradient id="linear-gradient-14" x1="526.72" y1="220.73" x2="588.74" y2="315.36" gradientTransform="matrix(1, 0, 0, 1, 0, 0)" xlink:href="#linear-gradient"/><linearGradient id="Безымянный_градиент_93" x1="3181" y1="313.65" x2="3279.68" y2="313.65" gradientTransform="matrix(-1, 0, 0, 1, 3777.45, 0)" gradientUnits="userSpaceOnUse"><stop offset="0.01" stop-color="#fab9be"/><stop offset="1" stop-color="#d6969b"/></linearGradient><linearGradient id="linear-gradient-15" x1="148.21" y1="278.8" x2="226.49" y2="278.8" xlink:href="#linear-gradient-10"/><linearGradient id="linear-gradient-16" x1="148.21" y1="278.83" x2="223.91" y2="278.83" gradientUnits="userSpaceOnUse"><stop offset="0" stop-color="#008fd3"/><stop offset="1" stop-color="#173f5f"/></linearGradient><linearGradient id="Безымянный_градиент_161-2" x1="-3961.37" y1="296.92" x2="-3869" y2="296.92" gradientTransform="matrix(-1, 0, 0, 1, -3659.24, 0)" xlink:href="#Безымянный_градиент_161"/><linearGradient id="linear-gradient-17" x1="-3824.97" y1="256.91" x2="-3757.87" y2="344.92" gradientTransform="matrix(-1, 0, 0, 1, -3659.24, 0)" xlink:href="#linear-gradient-10"/><linearGradient id="linear-gradient-18" x1="-3775.09" y1="267.41" x2="-3758.34" y2="360.43" gradientTransform="matrix(-1, 0, 0, 1, -3659.24, 0)" xlink:href="#linear-gradient-16"/><linearGradient id="linear-gradient-19" x1="-3786.16" y1="211.44" x2="-3692.66" y2="336.11" gradientTransform="matrix(-1, 0, 0, 1, -3659.24, 0)" xlink:href="#linear-gradient-10"/><linearGradient id="Безымянный_градиент_6" x1="-3796.2" y1="298.72" x2="-3718.35" y2="321.22" gradientTransform="matrix(-1, 0, 0, 1, -3659.24, 0)" gradientUnits="userSpaceOnUse"><stop offset="0" stop-color="#fab9be"/><stop offset="0.99" stop-color="#fab9be"/></linearGradient><linearGradient id="Безымянный_градиент_159" x1="-3802.66" y1="216.85" x2="-3768.52" y2="216.85" gradientTransform="matrix(-1, 0, 0, 1, -3659.24, 0)" gradientUnits="userSpaceOnUse"><stop offset="0.01" stop-color="#fab9be"/><stop offset="0.34" stop-color="#f6b5ba"/><stop offset="0.67" stop-color="#e9a9ae"/><stop offset="1" stop-color="#d6969b"/></linearGradient><linearGradient id="Безымянный_градиент_11" x1="-3822.37" y1="289.92" x2="-3725.56" y2="325.42" gradientTransform="matrix(-1, 0, 0, 1, -3659.24, 0)" gradientUnits="userSpaceOnUse"><stop offset="0" stop-color="#fab9be"/><stop offset="0.99" stop-color="#d6969b"/></linearGradient></defs><title>ADSE website header asset</title><g class="cls-26"><g class="cls-27"><path class="cls-28" d="M176.13,364.25h266a6.38,6.38,0,0,0,6.28-5.22l37.37-201.49a6.39,6.39,0,0,0-6.28-7.56h-266a6.39,6.39,0,0,0-6.28,5.22L169.84,356.7A6.39,6.39,0,0,0,176.13,364.25Z"/></g><g class="cls-29"><path class="cls-30" d="M392.78,168.07H407.3a2.56,2.56,0,0,0,2.53-2.1l11.61-62.57a2.57,2.57,0,0,0-2.53-3H404.39a2.55,2.55,0,0,0-2.52,2.1L390.26,165A2.57,2.57,0,0,0,392.78,168.07Z"/></g><g class="cls-31"><path class="cls-32" d="M366.14,168.07h14.52a2.55,2.55,0,0,0,2.52-2.1l8.39-45.16a2.58,2.58,0,0,0-2.53-3H374.52a2.58,2.58,0,0,0-2.53,2.11L363.61,165A2.57,2.57,0,0,0,366.14,168.07Z"/></g><g class="cls-33"><path class="cls-34" d="M339.49,168.07H354a2.57,2.57,0,0,0,2.53-2.1l9.21-49.8a2.57,2.57,0,0,0-2.52-3H348.71a2.57,2.57,0,0,0-2.53,2.11L337,165A2.57,2.57,0,0,0,339.49,168.07Z"/></g><g class="cls-35"><path class="cls-36" d="M312.84,168.07h14.52a2.56,2.56,0,0,0,2.53-2.1l7.1-38.25a2.57,2.57,0,0,0-2.53-3H319.94a2.57,2.57,0,0,0-2.53,2.1L310.32,165A2.57,2.57,0,0,0,312.84,168.07Z"/></g><g class="cls-37"><path class="cls-38" d="M286.2,168.07h14.52a2.57,2.57,0,0,0,2.53-2.1l4.5-25a2.57,2.57,0,0,0-2.53-3H290.7a2.57,2.57,0,0,0-2.53,2.1l-4.5,25A2.57,2.57,0,0,0,286.2,168.07Z"/></g><g class="cls-39"><path class="cls-40" d="M259.55,168.07h14.52a2.57,2.57,0,0,0,2.53-2.1l3.34-18a2.58,2.58,0,0,0-2.53-3H262.89a2.57,2.57,0,0,0-2.53,2.1L257,165A2.57,2.57,0,0,0,259.55,168.07Z"/></g><g class="cls-41"><path class="cls-42" d="M232.91,168.07h14.51A2.56,2.56,0,0,0,250,166l4.62-24.9a2.57,2.57,0,0,0-2.53-3H237.53a2.57,2.57,0,0,0-2.53,2.1L230.38,165A2.57,2.57,0,0,0,232.91,168.07Z"/></g><g class="cls-43"><path class="cls-44" d="M206.26,168.07h14.52a2.57,2.57,0,0,0,2.53-2.1l7.62-41.11a2.57,2.57,0,0,0-2.53-3H213.89a2.56,2.56,0,0,0-2.53,2.1L203.73,165A2.57,2.57,0,0,0,206.26,168.07Z"/></g><g class="cls-45"><path class="cls-46" d="M179.61,168.07h14.52a2.57,2.57,0,0,0,2.53-2.1l5.15-27.76a2.57,2.57,0,0,0-2.53-3H184.76a2.57,2.57,0,0,0-2.53,2.1L177.08,165A2.57,2.57,0,0,0,179.61,168.07Z"/></g><polygon class="cls-47" points="501.13 162.75 443.35 162.75 442.36 168.07 500.14 168.07 501.13 162.75"/><g class="cls-48"><polygon class="cls-47" points="321.24 340.09 121.14 340.09 120.16 345.42 320.26 345.42 321.24 340.09"/><polygon class="cls-47" points="319.25 350.79 220.04 350.79 219.06 356.11 318.27 356.11 319.25 350.79"/><polygon class="cls-47" points="317.29 361.48 201.78 361.48 200.8 366.8 316.31 366.8 317.29 361.48"/><polygon class="cls-47" points="315.32 372.17 276.9 372.17 275.91 377.49 314.34 377.49 315.32 372.17"/></g><polygon class="cls-47" points="329.21 297.08 277.12 297.08 276.13 302.41 328.22 302.41 329.21 297.08"/><polygon class="cls-47" points="327.28 307.78 307.75 307.78 306.76 313.1 326.3 313.1 327.28 307.78"/><polygon class="cls-49" points="500.58 168.61 420.62 168.61 420.62 167.54 499.7 167.54 500.61 162.65 501.66 162.85 500.58 168.61"/><polygon class="cls-49" points="328.66 302.94 255.31 302.94 255.31 301.88 327.77 301.88 328.68 296.99 329.73 297.18 328.66 302.94"/><polygon class="cls-50" points="326.75 313.64 276.63 313.64 276.63 312.57 325.86 312.57 326.76 307.68 327.81 307.87 326.75 313.64"/><path class="cls-51" d="M219.34,208.71c-22.4,0-37.26-18.23-33.12-40.64s25.73-40.63,48.14-40.63,37.26,18.23,33.12,40.63S241.75,208.71,219.34,208.71ZM234,129.27c-21.4,0-42,17.41-46,38.8s10.24,38.8,31.63,38.8,42-17.4,46-38.8S255.41,129.27,234,129.27Z"/><path class="cls-50" d="M269.32,168.07h-5.51c3.77-20.38-9.75-37-30.13-37l1-5.5C258.11,125.61,273.64,144.66,269.32,168.07Z"/><polygon class="cls-51" points="291.21 206.44 267.85 206.44 267.74 206.35 253.19 192.97 253.89 192.25 268.33 205.53 291.38 205.53 291.21 206.44"/><polygon class="cls-52" points="262.82 143.9 262.38 143.18 282.02 129.7 305.38 129.7 305.21 130.62 282.17 130.62 262.82 143.9"/><path class="cls-52" d="M290.77,119.57a5.81,5.81,0,0,1-1.25,2.39,43.54,43.54,0,0,1-3.26,3.45h3.51l-.18,1H285l.1-.54.1-.54a37.61,37.61,0,0,0,3.31-3.5,5.4,5.4,0,0,0,1.16-2.22,1.05,1.05,0,0,0-.14-.86.84.84,0,0,0-.73-.33,1.31,1.31,0,0,0-.92.28,1.76,1.76,0,0,0-.4,1l-.05.26h-1.15l0-.26a2.47,2.47,0,0,1,.79-1.66,2.81,2.81,0,0,1,1.86-.55,2,2,0,0,1,1.56.54A1.79,1.79,0,0,1,290.77,119.57Z"/><path class="cls-52" d="M295.9,123.79a4,4,0,0,1-.89,2.11,2.52,2.52,0,0,1-1.85.61,2.15,2.15,0,0,1-1.62-.45,2,2,0,0,1-.24-1.62l.05-.26h1.13l-.05.26a1.16,1.16,0,0,0,.13.82.76.76,0,0,0,.66.26,1.3,1.3,0,0,0,1-.39,3.51,3.51,0,0,0,.53-1.5l.11-.59a2,2,0,0,0,0-1.16q-.17-.33-.75-.33a1.24,1.24,0,0,0-.88.3,1.53,1.53,0,0,0-.43.89h-1.17l1-5.21h4.14l-.19,1h-3.09l-.56,2.81c.24-.19.43-.34.57-.43a2,2,0,0,1,1.13-.32q1,0,1.29.57a3.5,3.5,0,0,1,0,2Z"/><path class="cls-52" d="M299.41,121.11a1.35,1.35,0,0,1,0-.94l.28-1.52a1.54,1.54,0,0,1,.4-.87,1.33,1.33,0,0,1,.87-.25c.39,0,.65.08.77.25a1.14,1.14,0,0,1,.08.87l-.28,1.52a1.77,1.77,0,0,1-.39,1,1.3,1.3,0,0,1-.89.23C299.79,121.35,299.53,121.27,299.41,121.11Zm-.39,5.75,5.28-9.59H305l-5.28,9.59Zm3.48-.59a1.35,1.35,0,0,1-.05-.94l.29-1.53a1.44,1.44,0,0,1,.39-.86,1.27,1.27,0,0,1,.87-.25,1,1,0,0,1,.78.24,1.12,1.12,0,0,1,.07.87l-.28,1.53a1.82,1.82,0,0,1-.38.94,1.31,1.31,0,0,1-.9.24C302.88,126.51,302.61,126.43,302.5,126.27Z"/><path class="cls-51" d="M271.52,202.2l4.42-7.88h-3.4l.18-1h4.42l-.09.48-.09.48-4.07,7.88Z"/><path class="cls-51" d="M281.9,199.62a4,4,0,0,1-.9,2.1,2.52,2.52,0,0,1-1.85.62,2.15,2.15,0,0,1-1.62-.45,2.06,2.06,0,0,1-.24-1.62l0-.27h1.14l-.05.27a1.14,1.14,0,0,0,.12.81.74.74,0,0,0,.66.27,1.27,1.27,0,0,0,1.05-.39,3.49,3.49,0,0,0,.53-1.5l.11-.59a2,2,0,0,0,0-1.16.78.78,0,0,0-.76-.33,1.3,1.3,0,0,0-.88.29,1.53,1.53,0,0,0-.43.9h-1.17l1-5.21h4.14l-.18,1h-3.1l-.55,2.81a5.62,5.62,0,0,1,.57-.44,2,2,0,0,1,1.13-.32A1.31,1.31,0,0,1,282,197a3.62,3.62,0,0,1,0,2Z"/><path class="cls-51" d="M285.41,196.94a1.34,1.34,0,0,1-.05-.94l.28-1.53a1.54,1.54,0,0,1,.4-.86,1.27,1.27,0,0,1,.87-.25,1,1,0,0,1,.78.25,1.13,1.13,0,0,1,.07.86l-.28,1.53a1.73,1.73,0,0,1-.39.94,1.28,1.28,0,0,1-.89.24C285.78,197.18,285.52,197.1,285.41,196.94Zm-.39,5.75,5.27-9.59H291l-5.27,9.59Zm3.47-.6a1.35,1.35,0,0,1,0-.94l.28-1.52a1.41,1.41,0,0,1,.4-.86,1.26,1.26,0,0,1,.86-.26,1,1,0,0,1,.78.25,1.14,1.14,0,0,1,.08.87l-.29,1.52a1.7,1.7,0,0,1-.38.95,1.3,1.3,0,0,1-.89.24C288.87,202.34,288.6,202.25,288.49,202.09Z"/><path class="cls-53" d="M190.63,199.68c-7.14-8.34-9.85-19.57-7.62-31.61,4.46-24.17,27.76-43.84,51.94-43.84l-1.53,8.25c-19.62,0-38.54,16-42.16,35.59-1.81,9.78.39,18.89,6.19,25.66Z"/><path class="cls-51" d="M491.36,126.34l2.26-11.73,9,5.87ZM514.53,110H482.14a3,3,0,0,0-2.76,2.32l-3.14,16.3a1.86,1.86,0,0,0,1.88,2.31h32.39a2.94,2.94,0,0,0,2.76-2.31l3.13-16.3A1.86,1.86,0,0,0,514.53,110Z"/><circle class="cls-54" cx="260.07" cy="102.48" r="12.86" transform="translate(100.58 332.04) rotate(-76.72)"/><path class="cls-52" d="M258.69,108.82,252,102.15a.53.53,0,0,1,0-.75l1.71-1.71a.53.53,0,0,1,.75,0l4.21,4.21a.53.53,0,0,0,.75,0l6.21-6.21a.54.54,0,0,1,.76,0l1.71,1.71a.54.54,0,0,1,0,.75l-8.68,8.67A.53.53,0,0,1,258.69,108.82Z"/><path class="cls-50" d="M442.09,364.79h-266v-1.07h266a5.87,5.87,0,0,0,5.76-4.79l37.37-201.49,1,.19L448.9,359.12A6.92,6.92,0,0,1,442.09,364.79Z"/><path class="cls-55" d="M459.15,199.55c-14.85,0-18.21,10.82-29.95,10.82s-15-20.18-29.41-20.18C376.37,190.19,354.92,244,334,244c-12.16,0-12.13-6.81-24.57-6.81-15.48,0-25.09,21.15-38.55,21.15-12.26,0-17-28.81-28-28.81-12.39,0-31.21,28.4-42.62,53.1H443.89Z"/><path class="cls-54" d="M200.64,283.35l-.92-.55c.61-1,1.22-2.06,1.84-3.11,7.72-13.1,16.47-27.95,26.36-29.9,3.88-.77,7.64,2.39,11.61,5.74,3.48,2.94,7.08,6,10.63,6,7,0,14.14-6,21.7-12.44s15.6-13.2,23.58-13.2c7.36,0,12.85,6.4,18.65,13.18,6.08,7.1,12.37,14.44,21.14,14.44,7,0,13.49-3.44,19.8-6.76s12.93-6.81,20-6.81c5.9,0,10.38,2.4,15.14,4.94,5.12,2.74,10.42,5.57,18,5.57,6.64,0,12-7.1,17.68-14.62,7.21-9.55,15.39-20.38,28.43-20.38v1.06c-12.51,0-20.52,10.61-27.58,20-5.84,7.73-11.36,15-18.53,15-7.84,0-13.26-2.9-18.5-5.7-4.63-2.48-9-4.81-14.63-4.81-6.83,0-13.29,3.4-19.53,6.69-6.42,3.38-13.06,6.88-20.3,6.88-9.26,0-15.71-7.53-22-14.82-5.64-6.58-11-12.81-17.84-12.81-7.59,0-15.37,6.59-22.89,12.95-7.71,6.53-15,12.7-22.39,12.7-3.94,0-7.69-3.17-11.32-6.23s-7.32-6.18-10.71-5.51c-9.42,1.86-18,16.49-25.65,29.39C201.86,281.28,201.25,282.33,200.64,283.35Z"/><g class="cls-56"><path class="cls-57" d="M391.53,300c-23.54,0-46.15,19.08-50.5,42.62s11.21,42.63,34.75,42.63,46.16-19.08,50.51-42.63S415.08,300,391.53,300Zm-12.66,68.52c-8.24,0-14.87-3.85-18.5-9.85a22.7,22.7,0,0,1-2.61-16.05c2.65-14.3,16.38-25.89,30.68-25.89s23.76,11.59,21.11,25.89S393.18,368.55,378.87,368.55Z"/></g><g class="cls-58"><path class="cls-59" d="M388.44,316.76,391.53,300c-17.15,0-33.81,10.14-43.27,24.75l13.9,7C367.9,322.92,378,316.76,388.44,316.76Z"/></g><path class="cls-51" d="M375.78,385.82c-13.69,0-25.13-6.29-31.37-17.25l.93-.53c6,10.62,17.14,16.71,30.44,16.71,23.26,0,45.68-18.93,50-42.19,2-10.68-.15-20.85-6-28.65l.85-.64c6,8,8.2,18.51,6.17,29.48C422.42,366.5,399.53,385.82,375.78,385.82Zm-15.44-26.16a23.14,23.14,0,0,1-3.1-17.1c2.68-14.52,16.68-26.34,31.2-26.34,7.93,0,14.73,3.52,18.68,9.64l-.9.58c-3.74-5.81-10.22-9.15-17.78-9.15-14,0-27.56,11.42-30.15,25.46a22.11,22.11,0,0,0,2.94,16.32Z"/><circle class="cls-60" cx="448.02" cy="95.72" r="13.12"/><polygon class="cls-52" points="454.28 99.68 447.48 96.04 447.48 85.18 448.55 85.18 448.55 95.4 454.79 98.74 454.28 99.68"/><polygon class="cls-61" points="388.36 52.56 319.25 52.56 323.54 29.41 392.64 29.41 388.36 52.56"/><path class="cls-52" d="M392.2,28.87l-4.49,24.22h36.87l4.48-24.22Zm14.09,13.92a2.52,2.52,0,0,0,1.74.66,3.28,3.28,0,0,0,1.87-.61l1.7-1.17L422.77,52h-32.7l15-10.35Zm3-.83A1.86,1.86,0,0,1,407,42L394,29.94h32.7ZM393,30.46l11.28,10.46L389.12,51.38Zm30.8,21L412.5,41l15.16-10.46Z"/><path class="cls-54" d="M530.76,106.69l-2.47-3.77a14.61,14.61,0,0,1-3.37,0l-2.46,3.77-.5-.13a17.44,17.44,0,0,1-2.56-.85,19.32,19.32,0,0,1-2.41-1.2l-.44-.26.93-4.41a14.22,14.22,0,0,1-2.39-2.39l-4.41.92-.26-.44a18.93,18.93,0,0,1-2.06-5l-.12-.5L512,90a14.61,14.61,0,0,1,0-3.37l-3.76-2.46.12-.5a20.2,20.2,0,0,1,.85-2.56,19.37,19.37,0,0,1,1.21-2.41l.27-.44,4.4.92a14.1,14.1,0,0,1,2.38-2.38l-.92-4.41.44-.26a19,19,0,0,1,5-2.06l.5-.13,2.46,3.77a14.7,14.7,0,0,1,3.38,0L530.75,70l.5.12a18.72,18.72,0,0,1,2.56.85,18.08,18.08,0,0,1,2.41,1.21l.45.26-.93,4.41a14.54,14.54,0,0,1,2.39,2.38l4.4-.92.27.44a18.9,18.9,0,0,1,2.05,5l.13.5-3.77,2.46a14.61,14.61,0,0,1,0,3.37L545,92.47l-.13.5a19.06,19.06,0,0,1-.85,2.55,19.32,19.32,0,0,1-1.2,2.41l-.26.44-4.41-.92a14.54,14.54,0,0,1-2.39,2.38l.93,4.41-.45.26a18.78,18.78,0,0,1-5,2.06Zm-12.58-3.17a16.06,16.06,0,0,0,1.77.86,18.08,18.08,0,0,0,1.87.65l2.39-3.67.46.07a13.21,13.21,0,0,0,3.87,0l.46-.07,2.39,3.67a17.66,17.66,0,0,0,3.65-1.51l-.9-4.29.37-.27a13.18,13.18,0,0,0,2.74-2.74l.27-.37,4.29.9a16.21,16.21,0,0,0,.86-1.78,18.66,18.66,0,0,0,.65-1.86l-3.67-2.4.07-.46a13.21,13.21,0,0,0,0-3.87l-.07-.46,3.67-2.39a17.35,17.35,0,0,0-1.51-3.65l-4.28.9-.28-.37a13.18,13.18,0,0,0-2.74-2.74l-.37-.27.9-4.29a17.15,17.15,0,0,0-1.78-.85,17.39,17.39,0,0,0-1.87-.66L529,75.27l-.46-.07a13.21,13.21,0,0,0-3.87,0l-.46.07-2.39-3.67a17.58,17.58,0,0,0-3.64,1.51l.89,4.28-.37.28A13.18,13.18,0,0,0,516,80.41l-.27.38-4.29-.91a16.23,16.23,0,0,0-.85,1.78,16.66,16.66,0,0,0-.66,1.87l3.67,2.39-.07.46a13.21,13.21,0,0,0,0,3.87l.07.46L509.9,93.1a16.55,16.55,0,0,0,1.51,3.65l4.28-.9.27.37A13.43,13.43,0,0,0,518.7,99l.37.28Z"/><path class="cls-54" d="M526.59,98.64a10.36,10.36,0,0,1-3.94-.78l.56-1.34a8.88,8.88,0,0,0,11.6-11.6,8.78,8.78,0,0,0-4.8-4.81,8.9,8.9,0,0,0-11.61,4.81l-1.33-.56a10.33,10.33,0,1,1,9.52,14.28Z"/><path class="cls-50" d="M539.39,105.69a1,1,0,0,0,.83.91l6,1.14a1,1,0,0,1,.78.72A17.22,17.22,0,0,0,548.5,112a1,1,0,0,1,0,1.06L545,118.11a1,1,0,0,0,0,1.23c.44.52.9,1,1.39,1.51s1,1,1.5,1.38a1,1,0,0,0,1.23.06l5.08-3.48a1,1,0,0,1,1.06,0,17.3,17.3,0,0,0,3.52,1.45,1,1,0,0,1,.72.78l1.13,6a1,1,0,0,0,.91.83,23.28,23.28,0,0,0,4.09,0,1,1,0,0,0,.9-.83l1.14-6a1,1,0,0,1,.72-.78,17,17,0,0,0,3.51-1.45,1,1,0,0,1,1.06,0l5.08,3.47a1,1,0,0,0,1.23,0c.52-.43,1-.9,1.51-1.38s.95-1,1.39-1.51a1,1,0,0,0,0-1.23L578.78,113a1,1,0,0,1,0-1.06,16.67,16.67,0,0,0,1.45-3.51,1,1,0,0,1,.78-.73L587,106.6a1,1,0,0,0,.83-.91,25.39,25.39,0,0,0,0-4.09,1,1,0,0,0-.83-.9l-6-1.14a1,1,0,0,1-.78-.72,17,17,0,0,0-1.46-3.51,1,1,0,0,1,0-1.06l3.47-5.09a1,1,0,0,0,0-1.22c-.43-.52-.89-1-1.38-1.51s-1-1-1.51-1.38a1,1,0,0,0-1.23-.06L573,88.49a1,1,0,0,1-1.06,0,17.59,17.59,0,0,0-3.51-1.46,1,1,0,0,1-.72-.77l-1.14-6.06a1,1,0,0,0-.9-.83,25.39,25.39,0,0,0-4.09,0,1,1,0,0,0-.91.83l-1.13,6.06a1,1,0,0,1-.73.78,17.45,17.45,0,0,0-3.51,1.45,1,1,0,0,1-1.06,0L549.16,85a1,1,0,0,0-1.23,0c-.51.44-1,.9-1.5,1.39s-1,1-1.39,1.51a1,1,0,0,0,0,1.23l3.47,5.08a1,1,0,0,1,0,1.06,17,17,0,0,0-1.45,3.51,1,1,0,0,1-.78.72l-6,1.14a1,1,0,0,0-.83.9A23.28,23.28,0,0,0,539.39,105.69Zm17.37-8.9a9.7,9.7,0,1,1,0,13.72A9.7,9.7,0,0,1,556.76,96.79Z"/><path class="cls-54" d="M526.61,93.84a5.53,5.53,0,0,1-5.11-7.64h0a5.53,5.53,0,1,1,10.21,4.23,5.48,5.48,0,0,1-3,3A5.55,5.55,0,0,1,526.61,93.84Zm-3.77-7.09a4.08,4.08,0,1,0,7.54,3.13,4.14,4.14,0,0,0,0-3.13,4.08,4.08,0,0,0-7.54,0Z"/><rect class="cls-62" x="145.03" y="80.49" width="0.78" height="8.18" transform="matrix(-0.13, -0.99, 0.99, -0.13, 80.16, 239.63)"/><path class="cls-63" d="M185.59,81.44a15.86,15.86,0,1,0-29.29,8.42,23.9,23.9,0,0,1,3.77,12.7v.07a1.5,1.5,0,0,0,1.5,1.5h16.32a1.5,1.5,0,0,0,1.5-1.5v-.15a23.6,23.6,0,0,1,3.76-12.59A15.79,15.79,0,0,0,185.59,81.44Z"/><path class="cls-64" d="M161.84,104.13h15.78a0,0,0,0,1,0,0v8.11a1.49,1.49,0,0,1-1.49,1.49h-12.8a1.49,1.49,0,0,1-1.49-1.49v-8.11A0,0,0,0,1,161.84,104.13Z"/><path class="cls-65" d="M171.85,118.07h-4.24a2.69,2.69,0,0,1-2.25-1.22l-2-3.12h12.8l-2,3.12A2.68,2.68,0,0,1,171.85,118.07Z"/><rect class="cls-52" x="161.84" y="110.88" width="15.78" height="0.58"/><rect class="cls-52" x="161.84" y="108.9" width="15.78" height="0.58"/><rect class="cls-52" x="161.84" y="106.92" width="15.78" height="0.58"/><path class="cls-52" d="M172.42,104.13h-.8c0-5.34.5-9.72,1.32-11.72.56-1.35,1.13-2.47,1.68-3.54a18.9,18.9,0,0,0,2.25-6.14c.16-1.07-.29-1.84-.59-1.91s-.47.26-.69,1c0,.13-.07.28-.12.45-.28,1.1-.71,2.78-2,2.78s-1.16-1.51-1.21-2.83c0-.7-.07-2-.38-2s-.49,1.33-.63,2c-.3,1.45-.59,2.83-1.56,2.83s-1.25-1.38-1.56-2.83c-.14-.66-.39-1.88-.64-2s-.34,1.31-.37,2c0,1.32-.1,2.83-1.21,2.83s-1.67-1.67-2-2.78q-.06-.26-.12-.45c-.22-.74-.53-1-.68-1-.3.07-.75.84-.6,1.91a19.37,19.37,0,0,0,2.25,6.14c.55,1.07,1.12,2.19,1.68,3.54.83,2,1.32,6.38,1.32,11.72H167c0-5.16-.48-9.54-1.26-11.42-.55-1.31-1.11-2.42-1.65-3.48a19.53,19.53,0,0,1-2.33-6.38c-.2-1.34.36-2.62,1.21-2.81.33-.07,1.15-.07,1.63,1.55l.13.48c.19.76.56,2.17,1.18,2.17.34,0,.38-1.28.41-2,0-1.37.1-2.77,1.18-2.77.86,0,1.12,1.21,1.42,2.62.13.66.46,2.2.77,2.2s.64-1.54.78-2.2c.29-1.41.55-2.62,1.41-2.62,1.08,0,1.13,1.4,1.18,2.77,0,.77.08,2,.41,2,.63,0,1-1.41,1.19-2.17q.06-.27.12-.48c.49-1.62,1.3-1.62,1.63-1.55.85.19,1.41,1.47,1.21,2.81a19.53,19.53,0,0,1-2.33,6.38c-.54,1.06-1.1,2.17-1.64,3.48C172.91,94.59,172.42,99,172.42,104.13Z"/><path class="cls-66" d="M169.54,70.4c1.37,1.76-.83,3.84-4,6.31s-6.15,4.41-7.51,2.65-.58-5.7,2.6-8.17S168.18,68.64,169.54,70.4Z"/><path class="cls-49" d="M169.79,116.82H168.3a1.73,1.73,0,0,1-1.23-.62l-2.24-2.47h8.43L171,116.2A1.69,1.69,0,0,1,169.79,116.82Z"/><rect class="cls-67" x="169.34" y="50.28" width="0.78" height="10.74"/><rect class="cls-68" x="155.78" y="54.13" width="0.78" height="10.74" transform="translate(-7.95 91.05) rotate(-31.74)"/><rect class="cls-69" x="146.59" y="65.39" width="0.78" height="9.81" transform="translate(19.21 171.4) rotate(-63.92)"/><rect class="cls-70" x="149.96" y="92.07" width="0.78" height="7.3" transform="translate(162.53 273.54) rotate(-126.4)"/><rect class="cls-71" x="182.91" y="54.13" width="0.78" height="10.74" transform="translate(307.89 206.53) rotate(-148.26)"/><rect class="cls-72" x="192.09" y="65.39" width="0.78" height="9.81" transform="translate(213.98 274.09) rotate(-116.08)"/><rect class="cls-73" x="193.65" y="80.49" width="0.78" height="8.18" transform="translate(85.32 266.19) rotate(-82.64)"/><rect class="cls-74" x="188.72" y="92.07" width="0.78" height="7.3" transform="matrix(0.59, -0.8, 0.8, 0.59, -0.16, 191.13)"/><path class="cls-75" d="M444.18,326.66c-4.15,5.42-18.39,7.74-13.69-6.67,9.71-29.82,35-68.55,52.35-77.17,8.09-4,8.39,4,6,13.4C486,267,476.15,275.3,468.74,287.29,459.21,302.7,450.72,318.12,444.18,326.66Z"/><path class="cls-76" d="M489.49,253.27c-.19,1-.42,1.95-.67,3C486,267,476.16,275.3,468.74,287.29c-9.53,15.41-18,30.83-24.56,39.37a11.47,11.47,0,0,1-5.59,3.64q.3-.68.66-1.41C452.39,301.82,475.17,267.32,489.49,253.27Z"/><path class="cls-77" d="M556,269.3l-.57-5.73c0-.38-.19-2.24-.41-5.12-1.08-13.61-3.93-49.53-5.59-60.5-3-20-12.23-33.5-28.69-33.5a13.17,13.17,0,0,0-8.35,3.07,19.28,19.28,0,0,0-10.89,4.77c-6.68,5.83-9.76,14.55-9.76,25.79V269.3Z"/><path class="cls-78" d="M551.18,269.31c18.59-.42,27.07-21.95,22.91-35.07-2.44-7.66-8.18-11.77-9.38-18.72-1.25-7.31,1.13-13.93-4.21-21.14-3-4.1-8.66-6.59-13.27-11.31-5.4-5.53-5.49-10.3-12.31-14.42-13.23-8-14.64,4.42-6.29,14.36,4,4.74,14.18,9.07,15.89,17.06,1.38,6.46-3,14.46-2.81,21.91.18,7,4.57,11.93,5.75,18.74.94,5.4-1.67,11.29-3.41,16.08C541.11,264.85,539.22,269.46,551.18,269.31Z"/><path class="cls-79" d="M554.91,341.32c.45,3,1.9,12.95,3.62,25.43H476.16c4.1-14.79,7.24-28,7.14-36.13-.66-54.39-16.2-82.06,6.18-91.57,7.42-3.15,19.74-7.92,30.78-6.59a79.46,79.46,0,0,1,27.12,8.19C565.43,249.62,548.8,300.73,554.91,341.32Z"/><path class="cls-80" d="M531.55,239.66c-.28-4.6-5.73-5-7.06-13.1-.81-4.92-.46-11.36-.46-19.45-3.32,4.79-8.79,8.22-11.8,6.94.09,4.7,0,10.52-.14,12.41-.45,7.07-6.89,6.73-9.22,12.21s3.61,24.2,10.15,24.2C518.71,262.87,532,246.26,531.55,239.66Z"/><path class="cls-81" d="M524,207.11c0,4.07-.09,7.73-.07,11-3.51,6.51-9.32,6.37-11.74,3.75,0-2.39.06-5.26,0-7.79C515.24,215.32,520.71,211.9,524,207.11Z"/><path class="cls-82" d="M510.07,177.35a10.59,10.59,0,0,0-6.58,7c-1.12,3.75.33,6.83-.16,11-1.45,12.35,6,20.89,10.47,20.89,7.09,0,13.41-9.37,13.84-18.7C518.94,195.42,510.5,185.12,510.07,177.35Z"/><path class="cls-83" d="M530.6,200.15c-.79,2.66-2.32,4.8-4.37,4.53-1-.13-1-2.66-.87-5.35.06-1.58.56-3.75,3.24-3.89C530.72,195.33,531.39,197.49,530.6,200.15Z"/><path class="cls-84" d="M440.12,331c11-2.76,25.15-17.2,34.94-24.83,1.77-1.38,8.16-6.62,12.13-7.92,5.77-1.88,8.6-.43,11.45-2.32,2.43-1.61,4.39-7.23,6.22-11,1.23-2.52,1.95-2.49,4.95-2.5,2.54,0,6,.39,5.06-1.73-.36-.81-4.05-1.77-8-2.51-3.21-.6-5.42-1-7.1-.46s-9.76,2.88-11.83,5.44-6.25,8.05-10,10.58c-16.2,11.07-31.11,13.35-40.39,20.18-4.12,3-8.42,8.66-8.25,13.32C429.51,332.8,435.17,332.2,440.12,331Z"/><path class="cls-85" d="M442.59,330.86c6.83-2.91,14.15-8.32,20-13.66,6.07-5.58,16-14,21.26-17.18,5.53-3.4,11.24-2.53,12-3.12s-10.72-1.35-15.09,1.79c-6.81,4.89-13.16,11.11-19.39,16.64-5.27,4.67-10.86,10.06-17.87,11.9a19.07,19.07,0,0,1-10.78-.1c-2.59-.81-4.4-1.8-3.18,1.93C431.06,333.88,440,332,442.59,330.86Z"/><path class="cls-52" d="M516.21,207.09c.21.31-1.86,1.44-4,1.41-3.14,0-4.13-1.06-4-1.34s1.12-.4,4.06-.52C514.78,206.55,516,206.78,516.21,207.09Z"/><path class="cls-78" d="M506,196.37a.44.44,0,0,0,0-.1.25.25,0,0,0,0-.11s0,0,0,0a1.14,1.14,0,0,1-.14-1.43,0,0,0,0,1,0,0,.3.3,0,0,0,0-.1.43.43,0,0,0,0-.11s0,0,0,0,0,0,0-.07,0-.06,0-.08h0l-.09,0a.23.23,0,0,0-.12,0h0a1.17,1.17,0,0,0-.9,1.14,1.28,1.28,0,0,0,1,1.28h.07a.26.26,0,0,0,.19-.08h0s0,0,0-.05.05-.05.06-.09S506,196.39,506,196.37Z"/><path class="cls-78" d="M518.9,196.34h0a.3.3,0,0,0-.08-.2h0a1.14,1.14,0,0,1-.14-1.43h0a.28.28,0,0,0,.09-.26.28.28,0,0,0-.09-.13v0h0a.29.29,0,0,0-.13-.05s-.06,0-.09,0h0a1.17,1.17,0,0,0-.9,1.14,1.3,1.3,0,0,0,1,1.28h.07a.31.31,0,0,0,.29-.22S518.9,196.37,518.9,196.34Z"/><path class="cls-78" d="M523.26,192.47s0-.07,0-.1,0-.05-.06-.08,0-.06-.05-.08a6.29,6.29,0,0,0-2.48-.94,10.53,10.53,0,0,0-7,1.32h0s0,.05,0,.07-.06.05-.07.09a.18.18,0,0,0,0,.1.27.27,0,0,0,0,.09h0s0,0,.06.06l0,0a.28.28,0,0,0,.13,0,.25.25,0,0,0,.12,0,12.1,12.1,0,0,1,6.63-1.07,7.13,7.13,0,0,1,2.34.66.18.18,0,0,0,.1,0,.14.14,0,0,0,.09,0s.06,0,.09-.06.06,0,.07,0h0S523.26,192.5,523.26,192.47Z"/><path class="cls-78" d="M511.68,203.55l-.54-.14c-1.46-.39-2.22-.65-2.05-2,.05-.41.2-1.16.37-2a27,27,0,0,0,.81-5.76,1.87,1.87,0,0,0-.39-1h0l-.09-.09c-1.53-2-5-1.63-6.87-.5a.26.26,0,0,0-.08.36.23.23,0,0,0,.17.12.3.3,0,0,0,.13,0h.07l0,0a6.77,6.77,0,0,1,5.41-.13,2.15,2.15,0,0,1,.7.51s.07.05.09.09a1.39,1.39,0,0,1,.31.74,27.74,27.74,0,0,1-.8,5.6c-.18.88-.33,1.63-.38,2.06-.24,1.84,1.13,2.2,2.45,2.54l.52.14h.07a.26.26,0,0,0,.26-.19A.27.27,0,0,0,511.68,203.55Z"/><circle class="cls-86" cx="521.2" cy="204.24" r="3.58"/><path class="cls-86" d="M507.05,204.23c0,1.78-.89,3.26-2.06,3.53a22.85,22.85,0,0,1-1.69-6.56,1.92,1.92,0,0,1,1.29-.54C505.94,200.66,507.05,202.27,507.05,204.23Z"/><path class="cls-87" d="M554.9,341.32c-4.33-28.78,2.78-62.86.84-83.44a39.09,39.09,0,0,0-5.37,3.53,21.23,21.23,0,0,0-7,17.84c.64,7,3.83,13.56,2.88,20.75-.88,6.64-4.28,11.06-6.84,17.17-2.65,6.27-3.61,11-1.78,17.47,1.75,6.21,4.55,11.63,1,19.47-2.67,5.93-14.25,10.4-21.83,12.64h41.64C556.81,354.27,555.36,344.36,554.9,341.32Z"/><path class="cls-88" d="M596.74,323.59c0,12.89-14.8,10.09-21.69-.34-5.67-8.57-2.26-12.78-8.21-27-6-14.42-17.71-21-21.82-32.35-4-11-11.16-36.09,15.23-15.68C574.62,259.33,596.73,299.31,596.74,323.59Z"/><path class="cls-89" d="M587.41,332.67c-6.48.25-31.63-11.68-44.18-16.48-2.15-.82-9.67-4.07-14-4.12-6.23-.06-13.95,1.37-17.3.37-4.42-1.3-13.86-7.92-14.2-9.75-.67-3.56,21.49-2.95,21.49-2.95s-7.11-5.69-3.21-5.08,7.6,1.13,10.39,3,8.06,6.67,12.49,7.89c18,5,38,6.86,47,9.29,5.45,1.47,9.51,4.81,10.25,9.57C597.06,329.93,596,332.34,587.41,332.67Z"/><polygon class="cls-52" points="510.79 285.62 492.46 287.69 500.95 301.81 519.27 299.74 510.79 285.62"/><path class="cls-90" d="M211.5,321.68c7,3.35,18.65.94,13.88-10.4-5.13-12.19-13.23-24.1-22.11-34.61-10.72-12.68-26-29.65-36.8-37.38-20.95-15-19.61,9.44-16.47,19.6,4.54,14.72,20.32,27.8,32.06,39.39C191.3,307.38,203.86,318,211.5,321.68Z"/><path class="cls-91" d="M154.63,234.59a49.93,49.93,0,0,0,1.28,12c3.89,16.08,19.19,31.51,30.48,44.95,8.89,10.57,21.05,23.09,28.58,27.7a14.41,14.41,0,0,0,8.94,2c-3.13,2.28-8.5,2.21-12.41.34-7.64-3.66-20.2-14.3-29.44-23.4-11.74-11.59-27.52-24.67-32.06-39.39C147.65,251.26,146.3,235.59,154.63,234.59Z"/><path class="cls-92" d="M221.55,322.52c6.6-1.92,32.61-22.45,42.22-28.93,1.74-1.17,8.88-6.55,12.67-7.47,5.52-1.34,12.05-.8,14.8-2.41,3.06-1.79,11.44-11.29,10.87-12.7s-6.48,4.07-9.86,6.35a7.24,7.24,0,0,1-4.73,1c-2.06-.07-4.24-.24-5.74-.36-1.09-.09-1.82-.34-1.74-.77.13-.7.14-1,1.39-1.61,1.47-.69,5.27-1.38,6.29-2.18s.9-1.2-.28-1.05a54.42,54.42,0,0,0-9.32,1.62,13.75,13.75,0,0,0-4.21,2.43c-3.16,2.42-3.81,4.7-7.52,6.65-15.35,8.06-36.93,15.36-46.82,20-4.92,2.3-10.6,7.93-9.71,14.79C210.24,320.74,215,324.43,221.55,322.52Z"/><path class="cls-93" d="M80.65,366.26h95.42s-1.25-26.53,0-49.18c1.28-23.24,3.84-43.72-1.25-62-1.69-6.07-4.83-15-15.33-19.93-7.47-3.54-22.7-8.3-35.55-8.16a74.48,74.48,0,0,0-28.13,6.15C80.75,239.69,81,246.33,80,254.93c-2.33,20.19,1.88,49.06,1.88,74.63C81.91,350.49,80.65,366.26,80.65,366.26Z"/><path class="cls-94" d="M81.91,329.56c0,20.93-1.26,36.7-1.26,36.7h55.77c-14.44-3.43-34.65-7.21-36.06-24.08-.66-8.08,3.6-16.12,4.61-24.13,1-8.16.45-15.26-2.87-22.21-3.2-6.69-5.11-14.14-3.2-23,.89-4.06,4-9.14,4.93-13.17,3.33-14.62-5.71-19.24-17.19-12.79a69.66,69.66,0,0,0-6.13,3.83c-.18,1.36-.31,2.78-.48,4.24C77.71,275.12,81.91,304,81.91,329.56Z"/><path class="cls-95" d="M45.87,323.3c-.72,13.61,14.71,10.66,22-.3,6-9,8.18-17.1,14.68-32.06,6.59-15.17,12.79-19.74,17.36-32.86,4.11-11.79,8.17-31.09-12.76-19.73C63.13,251.36,47.21,297.68,45.87,323.3Z"/><path class="cls-96" d="M53.65,332.31c6.36,0,36.2-13.95,48.51-18.74,2.1-.82,9.48-4.06,13.68-4.11,6.11-.06,13.67,1.36,17,.37,4.33-1.3,13.58-7.9,13.92-9.72.65-3.55-21.08-2.94-21.08-2.94s7-5.67,3.15-5.06-7.45,1.12-10.19,3-7.9,6.65-12.25,7.88c-17.67,5-37.26,5.55-46.1,8-5.35,1.46-11,5.75-12.8,10.26C46.41,323.93,43.26,332.31,53.65,332.31Z"/><path class="cls-97" d="M109.44,228.72l2-.41a5.68,5.68,0,0,0,4.6-5.25c.67-11.71,1.6-29.31,1.6-29.31h19.58v30.8a4.56,4.56,0,0,0,3.59,4.44c.84.18,1.67.38,2.48.58a4.5,4.5,0,0,1,.18,1.31c0,5-7.33,9.08-16.38,9.08S107.87,235.7,109.44,228.72Z"/><path class="cls-98" d="M116.61,212.18c2.18,6.19,8.69,12.51,16,12.15a10.77,10.77,0,0,0,4.55-1.24V193.74H117.59S117.11,202.76,116.61,212.18Z"/><path class="cls-99" d="M116.84,191.93c3,14.58,9.47,18.68,15.85,18.68,6.67,0,10.71-2.91,12.73-16.86,2.17-15,1-20.66-7.65-23.88-3.67-1.37-13-1.51-17.35,2.8C116.63,176.47,115.7,186.42,116.84,191.93Z"/><path class="cls-78" d="M111.37,172.07c.71-5.6,4.28-9.89,9-8.38,2.58-3.94,7.92-5.89,10.91-6.86,3.92-1.26,11.06-2.48,15.24-1.54,4.45,1,5.53,4,.51,5.44a18,18,0,0,1,6.39,4.7c1.31,1.56,3.4,6.81-1.39,6.67,2,5.43-3.38,9.61-5.79,10.87.51-5.27-1.74-8.92-4.17-9.7-3.61-1.16-12.26-.71-16.09,2-5.15,3.65-5.26,13.25-4.84,16.38.14,1.05,3.64,5.81,8.33,5.81,2.14,0,4.3-1.65,7.12-1.65,2.58,0,3.49,1.31,5.49,1.31,3,0,3-5,3.63-5.19,1.94-.63,4.37,5.88,4.37,15,0,7.72-4.76,14.95-11.66,14.95-8,0-13-3.1-16.62-7.7-4.4-5.57-4.26-13.31-3.43-20.37a15.65,15.65,0,0,1-4.21-5.36C112.15,183.33,110.69,177.36,111.37,172.07Z"/><path class="cls-52" d="M130.32,201.31c0,.41,2.27,1.43,5.08,1.43s5.09-1.16,5.09-1.72c0-.37-2.28-.1-5.09-.1S130.32,200.84,130.32,201.31Z"/><path class="cls-81" d="M112.7,189.76c.43,3,3,6,4.5,5.53,1.25-.38,1.31-2.48,1.23-5.53-.06-2.88-.46-5.52-2.33-5.52S112.19,186.13,112.7,189.76Z"/><path class="cls-100" d="M49.57,332c3,1.4,6.27.85,9,.21C65,330.66,71,327.48,77,324.79c8.21-3.68,16.42-7.43,24.74-10.84,3.63-1.49,9-3.63,12.94-4.24,2.66-.41,8.93.56,8.35-.16-1.36-1.69-9.11-2.11-13.74-1-6.68,1.64-11.28,3-21.07,7.95-15,7.65-29.72,13.73-40.37,11.05C44.69,326.78,46.69,330.62,49.57,332Z"/><polygon class="cls-55" points="134.13 283.05 152.46 285.12 143.98 299.24 125.65 297.17 134.13 283.05"/><path class="cls-52" d="M45.84,330c1.36.73,0-4.79,2.9-9.78s7.42-6.81,11.63-8.42c3.94-1.51,9.44-1.9,14.15-2.94,10.91-2.43-5.55-6.95-12.19-6.45-9.35.72-15.91,2-17.58,12.5C44.36,317.36,43.84,328.89,45.84,330Z"/><path class="cls-52" d="M219.1,323.58c.44-1.18-4.44-2.24-5.28-5.81-1-4.36,2.79-10.36,6.22-13.5,2.16-2,1.45-4.71.43-6.68-1.47-2.86-3.17-6.83-6.94-4.72-4.81,2.69-8.37,9.52-9.53,13.11-1.05,3.24-1.73,9.44-.86,11.75C205,322.65,218.17,326.12,219.1,323.58Z"/><path class="cls-78" d="M142.76,189.23s0-.06,0-.09a.19.19,0,0,1,0-.09l0,0a1.47,1.47,0,0,0,.35-1.83s0,0,0,0a.3.3,0,0,1,0-.1.16.16,0,0,1,0-.1s0,0,0,0,0,0,0-.06,0-.06,0-.07h0a.32.32,0,0,1,.09,0s.07,0,.11,0h0a1.31,1.31,0,0,1,.88,1.38,1.45,1.45,0,0,1-1.31,1.34h0a.26.26,0,0,1-.18-.09h0s0,0,0-.06,0,0,0-.08S142.76,189.24,142.76,189.23Z"/><path class="cls-78" d="M129.4,189.4a.44.44,0,0,1,0-.1.14.14,0,0,1,.05-.08,0,0,0,0,1,0,0,1.49,1.49,0,0,0,.36-1.83,0,0,0,0,1,0,0s0-.05,0-.09a.16.16,0,0,1,0-.1v0s0,0,.05-.07,0-.05,0-.07h0l.09,0a.21.21,0,0,1,.11,0h0a1.3,1.3,0,0,1,.88,1.38,1.42,1.42,0,0,1-1.3,1.33h0a.26.26,0,0,1-.19-.09h0s0,0,0-.05a.35.35,0,0,1-.05-.08S129.4,189.41,129.4,189.4Z"/><path class="cls-52" d="M139.78,244.89l-7.59-6.54a25.12,25.12,0,0,0,5-2.58c1.94-1.6,3.48-3.11,2.86-6.86-.25-1.5-3.21-2.87-.67-2.87a5.32,5.32,0,0,1,4.5,2.62,12.11,12.11,0,0,1,1,6.38C144.47,238.73,142.29,242.15,139.78,244.89Z"/><path class="cls-52" d="M108.8,228.33c.86-2.34,2.23-.57,2.34-.14.9,3.47,2.51,5.58,6.34,7.63a24.21,24.21,0,0,0,11,2.76c.55,0,1,0,1.3,0l-6.25,7.92C116.38,243.86,106.7,236.12,108.8,228.33Z"/><path class="cls-78" d="M123.48,185.29a10.62,10.62,0,0,1,11.25-.5,1.61,1.61,0,0,1,.11,1,.29.29,0,0,1-.23.13.24.24,0,0,1-.14-.05,10.35,10.35,0,0,0-10.71-.07.43.43,0,0,1-.14,0h-.08a.24.24,0,0,1-.15-.11A.28.28,0,0,1,123.48,185.29Z"/><path class="cls-78" d="M137.14,195.82c1.15-.12,2.47-.43,2.82-.89a.26.26,0,0,0,.07-.23c-.12-.76-.27-1.51-.43-2.31-.27-1.38-.59-2.95-.82-4.89a2.22,2.22,0,0,1,1.37-2.65c0-.14.1-.46.24-.48,3.54-.43,5.62.29,6.62,1.07,0,0,0,0,0,.05a.2.2,0,0,1,.05.09.34.34,0,0,1,0,.1s0,0,0,.06,0,0,0,0,0,0,0,0l-.05,0a.24.24,0,0,1-.11.06l-.05,0,0,0h0a13.06,13.06,0,0,0-6.3-.58c-1.28.22-1.21,1.67-1.15,2.11.23,1.92.54,3.48.82,4.86.15.8.3,1.56.43,2.32a.82.82,0,0,1-.17.65c-.6.78-2.6,1-3.2,1.09h0a.27.27,0,0,1-.27-.24A.26.26,0,0,1,137.14,195.82Z"/></g></svg>