<svg xmlns="http://www.w3.org/2000/svg" width="579.784" height="564.852" viewBox="0 0 579.784 564.852">
  <g id="Group_137" data-name="Group 137" transform="translate(800.672 -245.633)">
    <g id="Group_136" data-name="Group 136">
      <g id="Group_135" data-name="Group 135">
        <g id="Group_134" data-name="Group 134">
          <g id="Group_133" data-name="Group 133">
            <g id="Group_132" data-name="Group 132" transform="translate(-6 157)">
              <g id="Group_131" data-name="Group 131">
                <g id="Group_130" data-name="Group 130" transform="translate(-578.309 -451.583)">
                  <path id="Path_1" data-name="Path 1" d="M614.633,463.017,345.082,390.8a4.126,4.126,0,0,1-1.841-6.888L540.516,186.674a4.095,4.095,0,0,1,6.856,1.841L619.585,457.97a4.127,4.127,0,0,1-4.952,5.047Z" transform="translate(-558.406 482.919)" fill="#71a8c6"/>
                  <path id="Path_2" data-name="Path 2" d="M715.958,372.867,439.8,412.1a4.127,4.127,0,0,1-4.412-5.618l104.145-258.79a4.095,4.095,0,0,1,7.047-1.016l172.04,219.589a4.095,4.095,0,0,1-2.666,6.6Z" transform="translate(-356.09 395.126)" fill="#243f90"/>
                  <path id="Path_3" data-name="Path 3" d="M699.886,513.1,430.462,440.89a4.094,4.094,0,0,1-1.872-6.856L625.865,236.759a4.1,4.1,0,0,1,6.857,1.873l72.212,269.423a4.126,4.126,0,0,1-5.047,5.047Z" transform="translate(-372.839 591.828)" fill="#df7426"/>
                </g>
              </g>
            </g>
          </g>
        </g>
      </g>
    </g>
  </g>
</svg>
